G04 #@! TF.GenerationSoftware,KiCad,Pcbnew,9.0.4*
G04 #@! TF.CreationDate,2026-03-19T18:37:18+01:00*
G04 #@! TF.ProjectId,PUTM_EV_DASHBOARD_SOCKET_2025,5055544d-5f45-4565-9f44-415348424f41,rev?*
G04 #@! TF.SameCoordinates,Original*
G04 #@! TF.FileFunction,Paste,Bot*
G04 #@! TF.FilePolarity,Positive*
%FSLAX46Y46*%
G04 Gerber Fmt 4.6, Leading zero omitted, Abs format (unit mm)*
G04 Created by KiCad (PCBNEW 9.0.4) date 2026-03-19 18:37:18*
%MOMM*%
%LPD*%
G01*
G04 APERTURE LIST*
G04 Aperture macros list*
%AMRoundRect*
0 Rectangle with rounded corners*
0 $1 Rounding radius*
0 $2 $3 $4 $5 $6 $7 $8 $9 X,Y pos of 4 corners*
0 Add a 4 corners polygon primitive as box body*
4,1,4,$2,$3,$4,$5,$6,$7,$8,$9,$2,$3,0*
0 Add four circle primitives for the rounded corners*
1,1,$1+$1,$2,$3*
1,1,$1+$1,$4,$5*
1,1,$1+$1,$6,$7*
1,1,$1+$1,$8,$9*
0 Add four rect primitives between the rounded corners*
20,1,$1+$1,$2,$3,$4,$5,0*
20,1,$1+$1,$4,$5,$6,$7,0*
20,1,$1+$1,$6,$7,$8,$9,0*
20,1,$1+$1,$8,$9,$2,$3,0*%
G04 Aperture macros list end*
%ADD10R,1.000000X0.700000*%
%ADD11RoundRect,0.250000X-1.050000X0.500000X-1.050000X-0.500000X1.050000X-0.500000X1.050000X0.500000X0*%
%ADD12RoundRect,0.250000X-0.625000X0.312500X-0.625000X-0.312500X0.625000X-0.312500X0.625000X0.312500X0*%
%ADD13RoundRect,0.112500X0.237500X-0.112500X0.237500X0.112500X-0.237500X0.112500X-0.237500X-0.112500X0*%
%ADD14RoundRect,0.185000X-0.185000X-1.210000X0.185000X-1.210000X0.185000X1.210000X-0.185000X1.210000X0*%
G04 APERTURE END LIST*
D10*
G04 #@! TO.C,S5*
X89900000Y-94100000D03*
X83900000Y-94100000D03*
X89900000Y-97800000D03*
X83900000Y-97800000D03*
G04 #@! TD*
D11*
G04 #@! TO.C,AMS0*
X96200000Y-40937500D03*
X96200000Y-37937500D03*
G04 #@! TD*
D10*
G04 #@! TO.C,S2*
X89900000Y-64050000D03*
X83900000Y-64050000D03*
X89900000Y-67750000D03*
X83900000Y-67750000D03*
G04 #@! TD*
D12*
G04 #@! TO.C,R11*
X160000000Y-38775000D03*
X160000000Y-41700000D03*
G04 #@! TD*
D11*
G04 #@! TO.C,FUSE_LED0*
X111000000Y-40937500D03*
X111000000Y-37937500D03*
G04 #@! TD*
D10*
G04 #@! TO.C,S1*
X90200000Y-48500000D03*
X84200000Y-48500000D03*
X90200000Y-52200000D03*
X84200000Y-52200000D03*
G04 #@! TD*
D11*
G04 #@! TO.C,SAFETY_LED0*
X103500000Y-40937500D03*
X103500000Y-37937500D03*
G04 #@! TD*
D10*
G04 #@! TO.C,S4*
X90000000Y-80000000D03*
X84000000Y-80000000D03*
X90000000Y-83700000D03*
X84000000Y-83700000D03*
G04 #@! TD*
D13*
G04 #@! TO.C,D24*
X149900000Y-34250000D03*
X149900000Y-32950000D03*
X151900000Y-33600000D03*
G04 #@! TD*
D14*
G04 #@! TO.C,J7*
X175330000Y-39330000D03*
X175330000Y-43400000D03*
X176600000Y-39330000D03*
X176600000Y-43400000D03*
X177870000Y-39330000D03*
X177870000Y-43400000D03*
X179140000Y-39330000D03*
X179140000Y-43400000D03*
X180410000Y-39330000D03*
X180410000Y-43400000D03*
X181680000Y-39330000D03*
X181680000Y-43400000D03*
X182950000Y-39330000D03*
X182950000Y-43400000D03*
G04 #@! TD*
D10*
G04 #@! TO.C,S3*
X89900000Y-108400000D03*
X83900000Y-108400000D03*
X89900000Y-112100000D03*
X83900000Y-112100000D03*
G04 #@! TD*
M02*
