M48
; DRILL file {KiCad 9.0.4} date 2026-03-19T18:37:18+0100
; FORMAT={-:-/ absolute / metric / decimal}
; #@! TF.CreationDate,2026-03-19T18:37:18+01:00
; #@! TF.GenerationSoftware,Kicad,Pcbnew,9.0.4
; #@! TF.FileFunction,NonPlated,1,2,NPTH
FMAT,2
METRIC
; #@! TA.AperFunction,NonPlated,NPTH,ComponentDrill
T1C1.020
; #@! TA.AperFunction,NonPlated,NPTH,ComponentDrill
T2C1.500
%
G90
G05
T1
X175.965Y-41.365
X182.315Y-41.365
T2
X125.0Y-48.275
X128.6Y-48.275
X132.2Y-48.275
X135.8Y-48.275
X160.4Y-31.8
X160.4Y-35.4
X175.1Y-58.4
X178.7Y-58.4
X182.3Y-58.4
X185.9Y-58.4
X189.5Y-58.4
X193.1Y-58.4
X233.6Y-93.0
X233.6Y-96.6
X233.6Y-100.2
X233.6Y-103.8
X233.6Y-107.4
X233.6Y-111.0
M30
