M48
; DRILL file {KiCad 9.0.4} date 2026-03-19T18:54:30+0100
; FORMAT={-:-/ absolute / metric / decimal}
; #@! TF.CreationDate,2026-03-19T18:54:30+01:00
; #@! TF.GenerationSoftware,Kicad,Pcbnew,9.0.4
; #@! TF.FileFunction,Plated,1,2,PTH
FMAT,2
METRIC
; #@! TA.AperFunction,Plated,PTH,ViaDrill
T1C0.300
; #@! TA.AperFunction,Plated,PTH,ComponentDrill
T2C0.600
; #@! TA.AperFunction,Plated,PTH,ComponentDrill
T3C0.650
; #@! TA.AperFunction,Plated,PTH,ComponentDrill
T4C1.000
; #@! TA.AperFunction,Plated,PTH,ComponentDrill
T5C4.200
; #@! TA.AperFunction,Plated,PTH,ViaDrill
T6C4.300
; #@! TA.AperFunction,Plated,PTH,ViaDrill
T7C4.400
%
G90
G05
T1
X96.2Y-38.195
X100.1Y-44.976
X103.7Y-38.195
X108.2Y-43.7
X110.7Y-38.195
X111.0Y-44.0
X149.0Y-104.7
X149.25Y-106.15
X150.9Y-33.6
X151.5Y-102.5
X152.7Y-105.3
X229.0Y-68.6
T2
X125.0Y-54.275
X128.6Y-54.275
X132.2Y-54.275
X135.8Y-54.275
X154.4Y-31.8
X154.4Y-35.4
X175.1Y-64.4
X178.7Y-64.4
X182.3Y-64.4
X185.9Y-64.4
X189.5Y-64.4
X193.1Y-64.4
X227.6Y-93.0
X227.6Y-96.6
X227.6Y-100.2
X227.6Y-103.8
X227.6Y-107.4
X227.6Y-111.0
T3
X199.52Y-35.8
X199.52Y-37.07
X200.79Y-35.8
X200.79Y-37.07
X202.06Y-35.8
X202.06Y-37.07
X203.33Y-35.8
X203.33Y-37.07
X204.6Y-35.8
X204.6Y-37.07
X205.87Y-35.8
X205.87Y-37.07
X207.14Y-35.8
X207.14Y-37.07
X208.41Y-35.8
X208.41Y-37.07
X209.68Y-35.8
X209.68Y-37.07
X210.95Y-35.8
X210.95Y-37.07
X212.22Y-35.8
X212.22Y-37.07
X213.49Y-35.8
X213.49Y-37.07
X214.76Y-35.8
X214.76Y-37.07
X216.03Y-35.8
X216.03Y-37.07
X217.3Y-35.8
X217.3Y-37.07
X218.57Y-35.8
X218.57Y-37.07
X219.84Y-35.8
X219.84Y-37.07
X221.11Y-35.8
X221.11Y-37.07
X222.38Y-35.8
X222.38Y-37.07
X223.63Y-55.6
X223.63Y-56.87
X223.63Y-58.14
X223.63Y-59.41
X223.63Y-60.68
X223.63Y-61.95
X223.63Y-63.22
X223.63Y-64.49
X223.63Y-65.76
X223.63Y-67.03
X223.63Y-68.3
X223.63Y-69.57
X223.63Y-70.84
X223.63Y-72.11
X223.63Y-73.38
X223.63Y-74.65
X223.63Y-75.92
X223.63Y-77.19
X223.63Y-78.46
X223.63Y-79.73
X223.65Y-35.8
X223.65Y-37.07
X224.9Y-55.6
X224.9Y-56.87
X224.9Y-58.14
X224.9Y-59.41
X224.9Y-60.68
X224.9Y-61.95
X224.9Y-63.22
X224.9Y-64.49
X224.9Y-65.76
X224.9Y-67.03
X224.9Y-68.3
X224.9Y-69.57
X224.9Y-70.84
X224.9Y-72.11
X224.9Y-73.38
X224.9Y-74.65
X224.9Y-75.92
X224.9Y-77.19
X224.9Y-78.46
X224.9Y-79.73
T4
X96.2Y-32.225
X96.2Y-34.765
X97.1Y-50.035
X97.1Y-52.575
X97.1Y-62.925
X97.1Y-65.465
X97.1Y-78.925
X97.1Y-81.465
X97.1Y-92.86
X97.1Y-95.4
X97.1Y-107.5
X97.1Y-110.04
X103.6Y-32.225
X103.6Y-34.765
X111.0Y-32.225
X111.0Y-34.765
X126.93Y-34.5
X128.315Y-37.34
X129.7Y-34.5
X131.085Y-37.34
X132.47Y-34.5
X133.855Y-37.34
X135.24Y-34.5
X136.625Y-37.34
X138.01Y-34.5
X155.3Y-39.16
X155.3Y-41.7
T5
X243.5Y-42.5
X262.0Y-42.5
T6
X84.0Y-31.0
X84.0Y-120.0
X265.0Y-31.0
X265.0Y-120.0
T7
X107.1Y-57.6
X107.1Y-116.2
X237.0Y-57.6
X237.0Y-116.2
T4
G00X256.8Y-111.35
M15
G01X256.8Y-108.85
M16
G05
G00X259.0Y-114.8
M15
G01X261.0Y-114.8
M16
G05
G00X263.0Y-111.1
M15
G01X263.0Y-109.1
M16
G05
M30
