G04 #@! TF.GenerationSoftware,KiCad,Pcbnew,9.0.4*
G04 #@! TF.CreationDate,2026-03-19T18:54:30+01:00*
G04 #@! TF.ProjectId,PUTM_EV_DASHBOARD_SOCKET_2025,5055544d-5f45-4565-9f44-415348424f41,rev?*
G04 #@! TF.SameCoordinates,Original*
G04 #@! TF.FileFunction,Soldermask,Top*
G04 #@! TF.FilePolarity,Negative*
%FSLAX46Y46*%
G04 Gerber Fmt 4.6, Leading zero omitted, Abs format (unit mm)*
G04 Created by KiCad (PCBNEW 9.0.4) date 2026-03-19 18:54:30*
%MOMM*%
%LPD*%
G01*
G04 APERTURE LIST*
G04 Aperture macros list*
%AMRoundRect*
0 Rectangle with rounded corners*
0 $1 Rounding radius*
0 $2 $3 $4 $5 $6 $7 $8 $9 X,Y pos of 4 corners*
0 Add a 4 corners polygon primitive as box body*
4,1,4,$2,$3,$4,$5,$6,$7,$8,$9,$2,$3,0*
0 Add four circle primitives for the rounded corners*
1,1,$1+$1,$2,$3*
1,1,$1+$1,$4,$5*
1,1,$1+$1,$6,$7*
1,1,$1+$1,$8,$9*
0 Add four rect primitives between the rounded corners*
20,1,$1+$1,$2,$3,$4,$5,0*
20,1,$1+$1,$4,$5,$6,$7,0*
20,1,$1+$1,$6,$7,$8,$9,0*
20,1,$1+$1,$8,$9,$2,$3,0*%
G04 Aperture macros list end*
%ADD10RoundRect,0.200000X-0.200000X-0.275000X0.200000X-0.275000X0.200000X0.275000X-0.200000X0.275000X0*%
%ADD11RoundRect,0.225000X-0.225000X-0.250000X0.225000X-0.250000X0.225000X0.250000X-0.225000X0.250000X0*%
%ADD12RoundRect,0.250000X0.625000X-0.312500X0.625000X0.312500X-0.625000X0.312500X-0.625000X-0.312500X0*%
%ADD13RoundRect,0.150000X-0.587500X-0.150000X0.587500X-0.150000X0.587500X0.150000X-0.587500X0.150000X0*%
%ADD14RoundRect,0.250000X-0.312500X-0.625000X0.312500X-0.625000X0.312500X0.625000X-0.312500X0.625000X0*%
%ADD15C,1.500000*%
%ADD16RoundRect,0.250000X0.550000X-0.550000X0.550000X0.550000X-0.550000X0.550000X-0.550000X-0.550000X0*%
%ADD17C,1.600000*%
%ADD18RoundRect,0.150000X0.512500X0.150000X-0.512500X0.150000X-0.512500X-0.150000X0.512500X-0.150000X0*%
%ADD19R,1.100000X2.000000*%
%ADD20R,1.100000X0.800000*%
%ADD21RoundRect,0.200000X-0.275000X0.200000X-0.275000X-0.200000X0.275000X-0.200000X0.275000X0.200000X0*%
%ADD22R,1.000000X1.000000*%
%ADD23C,1.000000*%
%ADD24RoundRect,0.375000X-0.625000X-0.375000X0.625000X-0.375000X0.625000X0.375000X-0.625000X0.375000X0*%
%ADD25RoundRect,0.500000X-0.500000X-1.400000X0.500000X-1.400000X0.500000X1.400000X-0.500000X1.400000X0*%
%ADD26R,2.000000X4.500000*%
%ADD27O,2.000000X4.000000*%
%ADD28O,4.000000X2.000000*%
%ADD29R,1.700000X1.700000*%
%ADD30C,1.700000*%
%ADD31C,8.000000*%
%ADD32R,1.600000X1.600000*%
%ADD33RoundRect,0.250000X-0.550000X-0.550000X0.550000X-0.550000X0.550000X0.550000X-0.550000X0.550000X0*%
%ADD34C,1.020000*%
%ADD35RoundRect,0.250000X-0.550000X0.550000X-0.550000X-0.550000X0.550000X-0.550000X0.550000X0.550000X0*%
%ADD36C,6.500000*%
G04 APERTURE END LIST*
D10*
G04 #@! TO.C,R16*
X158612500Y-95600000D03*
X160262500Y-95600000D03*
G04 #@! TD*
D11*
G04 #@! TO.C,C5*
X241425000Y-78000000D03*
X242975000Y-78000000D03*
G04 #@! TD*
D12*
G04 #@! TO.C,R9*
X96200000Y-41120000D03*
X96200000Y-38195000D03*
G04 #@! TD*
D13*
G04 #@! TO.C,Q4*
X146825000Y-95450000D03*
X146825000Y-97350000D03*
X148700000Y-96400000D03*
G04 #@! TD*
D14*
G04 #@! TO.C,R2*
X85437500Y-65450000D03*
X88362500Y-65450000D03*
G04 #@! TD*
G04 #@! TO.C,R3*
X85537500Y-81535000D03*
X88462500Y-81535000D03*
G04 #@! TD*
G04 #@! TO.C,R1*
X86137500Y-50000000D03*
X89062500Y-50000000D03*
G04 #@! TD*
D15*
G04 #@! TO.C,J5POWER1*
X233600000Y-111000000D03*
X233600000Y-107400000D03*
X233600000Y-103800000D03*
X233600000Y-100200000D03*
X233600000Y-96600000D03*
X233600000Y-93000000D03*
D16*
X227600000Y-111000000D03*
D17*
X227600000Y-107400000D03*
X227600000Y-103800000D03*
X227600000Y-100200000D03*
X227600000Y-96600000D03*
X227600000Y-93000000D03*
G04 #@! TD*
D11*
G04 #@! TO.C,C4*
X202650000Y-101700000D03*
X204200000Y-101700000D03*
G04 #@! TD*
D18*
G04 #@! TO.C,U2*
X204500000Y-106400000D03*
X204500000Y-105450000D03*
X204500000Y-104500000D03*
X202225000Y-104500000D03*
X202225000Y-106400000D03*
G04 #@! TD*
D19*
G04 #@! TO.C,D1*
X241000000Y-90900000D03*
D20*
X241000000Y-89000000D03*
G04 #@! TD*
D11*
G04 #@! TO.C,C1*
X202150000Y-108400000D03*
X203700000Y-108400000D03*
G04 #@! TD*
D21*
G04 #@! TO.C,R7*
X146750000Y-91215000D03*
X146750000Y-92865000D03*
G04 #@! TD*
D13*
G04 #@! TO.C,Q6*
X163925000Y-95350000D03*
X163925000Y-97250000D03*
X165800000Y-96300000D03*
G04 #@! TD*
D12*
G04 #@! TO.C,R17*
X110700000Y-41120000D03*
X110700000Y-38195000D03*
G04 #@! TD*
D14*
G04 #@! TO.C,R6*
X240875000Y-82200000D03*
X243800000Y-82200000D03*
G04 #@! TD*
D22*
G04 #@! TO.C,J1pin200000*
X223630000Y-55600000D03*
D23*
X224900000Y-55600000D03*
X223630000Y-56870000D03*
X224900000Y-56870000D03*
X223630000Y-58140000D03*
X224900000Y-58140000D03*
X223630000Y-59410000D03*
X224900000Y-59410000D03*
X223630000Y-60680000D03*
X224900000Y-60680000D03*
X223630000Y-61950000D03*
X224900000Y-61950000D03*
X223630000Y-63220000D03*
X224900000Y-63220000D03*
X223630000Y-64490000D03*
X224900000Y-64490000D03*
X223630000Y-65760000D03*
X224900000Y-65760000D03*
X223630000Y-67030000D03*
X224900000Y-67030000D03*
X223630000Y-68300000D03*
X224900000Y-68300000D03*
X223630000Y-69570000D03*
X224900000Y-69570000D03*
X223630000Y-70840000D03*
X224900000Y-70840000D03*
X223630000Y-72110000D03*
X224900000Y-72110000D03*
X223630000Y-73380000D03*
X224900000Y-73380000D03*
X223630000Y-74650000D03*
X224900000Y-74650000D03*
X223630000Y-75920000D03*
X224900000Y-75920000D03*
X223630000Y-77190000D03*
X224900000Y-77190000D03*
X223630000Y-78460000D03*
X224900000Y-78460000D03*
X223630000Y-79730000D03*
X224900000Y-79730000D03*
G04 #@! TD*
D13*
G04 #@! TO.C,Q5*
X154925000Y-95650000D03*
X154925000Y-97550000D03*
X156800000Y-96600000D03*
G04 #@! TD*
D10*
G04 #@! TO.C,R13*
X150512500Y-95400000D03*
X152162500Y-95400000D03*
G04 #@! TD*
D11*
G04 #@! TO.C,C2*
X211850000Y-110700000D03*
X213400000Y-110700000D03*
G04 #@! TD*
D10*
G04 #@! TO.C,R8*
X141250000Y-95300000D03*
X142900000Y-95300000D03*
G04 #@! TD*
D14*
G04 #@! TO.C,R5*
X85537500Y-95400000D03*
X88462500Y-95400000D03*
G04 #@! TD*
D12*
G04 #@! TO.C,R14*
X103700000Y-41120000D03*
X103700000Y-38195000D03*
G04 #@! TD*
D21*
G04 #@! TO.C,R10*
X154862500Y-91650000D03*
X154862500Y-93300000D03*
G04 #@! TD*
D24*
G04 #@! TO.C,Q1*
X244575000Y-86050000D03*
X244575000Y-88350000D03*
D25*
X250875000Y-88350000D03*
D24*
X244575000Y-90650000D03*
G04 #@! TD*
D14*
G04 #@! TO.C,R4*
X85537500Y-110000000D03*
X88462500Y-110000000D03*
G04 #@! TD*
D18*
G04 #@! TO.C,U1*
X214300000Y-106575000D03*
X214300000Y-105625000D03*
X214300000Y-104675000D03*
X212025000Y-104675000D03*
X212025000Y-106575000D03*
G04 #@! TD*
D21*
G04 #@! TO.C,R15*
X163962500Y-90750000D03*
X163962500Y-92400000D03*
G04 #@! TD*
D11*
G04 #@! TO.C,C3*
X211825000Y-101700000D03*
X213375000Y-101700000D03*
G04 #@! TD*
D26*
G04 #@! TO.C,J8*
X256800000Y-110100000D03*
D27*
X263000000Y-110100000D03*
D28*
X260000000Y-114800000D03*
G04 #@! TD*
D29*
G04 #@! TO.C,RTD_BTN1*
X97100000Y-62925000D03*
D30*
X97100000Y-65465000D03*
G04 #@! TD*
D22*
G04 #@! TO.C,J2SO2*
X223650000Y-37070000D03*
D23*
X223650000Y-35800000D03*
X222380000Y-37070000D03*
X222380000Y-35800000D03*
X221110000Y-37070000D03*
X221110000Y-35800000D03*
X219840000Y-37070000D03*
X219840000Y-35800000D03*
X218570000Y-37070000D03*
X218570000Y-35800000D03*
X217300000Y-37070000D03*
X217300000Y-35800000D03*
X216030000Y-37070000D03*
X216030000Y-35800000D03*
X214760000Y-37070000D03*
X214760000Y-35800000D03*
X213490000Y-37070000D03*
X213490000Y-35800000D03*
X212220000Y-37070000D03*
X212220000Y-35800000D03*
X210950000Y-37070000D03*
X210950000Y-35800000D03*
X209680000Y-37070000D03*
X209680000Y-35800000D03*
X208410000Y-37070000D03*
X208410000Y-35800000D03*
X207140000Y-37070000D03*
X207140000Y-35800000D03*
X205870000Y-37070000D03*
X205870000Y-35800000D03*
X204600000Y-37070000D03*
X204600000Y-35800000D03*
X203330000Y-37070000D03*
X203330000Y-35800000D03*
X202060000Y-37070000D03*
X202060000Y-35800000D03*
X200790000Y-37070000D03*
X200790000Y-35800000D03*
X199520000Y-37070000D03*
X199520000Y-35800000D03*
G04 #@! TD*
D29*
G04 #@! TO.C,DRS_BTN1*
X97100000Y-92860000D03*
D30*
X97100000Y-95400000D03*
G04 #@! TD*
D29*
G04 #@! TO.C,TSA_BTN1*
X97100000Y-78925000D03*
D30*
X97100000Y-81465000D03*
G04 #@! TD*
D29*
G04 #@! TO.C,CS_BTN1*
X97100000Y-52575000D03*
D30*
X97100000Y-50035000D03*
G04 #@! TD*
D31*
G04 #@! TO.C,J5*
X262000000Y-42500000D03*
G04 #@! TD*
D29*
G04 #@! TO.C,J1*
X96200000Y-32225000D03*
D30*
X96200000Y-34765000D03*
G04 #@! TD*
D29*
G04 #@! TO.C,J3*
X111000000Y-32225000D03*
D30*
X111000000Y-34765000D03*
G04 #@! TD*
D29*
G04 #@! TO.C,J2*
X103600000Y-32225000D03*
D30*
X103600000Y-34765000D03*
G04 #@! TD*
D32*
G04 #@! TO.C,CAN0*
X126930000Y-34500000D03*
D17*
X129700000Y-34500000D03*
X132470000Y-34500000D03*
X135240000Y-34500000D03*
X138010000Y-34500000D03*
X128315000Y-37340000D03*
X131085000Y-37340000D03*
X133855000Y-37340000D03*
X136625000Y-37340000D03*
G04 #@! TD*
D15*
G04 #@! TO.C,CAN1*
X125000000Y-48275000D03*
X128600000Y-48275000D03*
X132200000Y-48275000D03*
X135800000Y-48275000D03*
D33*
X125000000Y-54275000D03*
D17*
X128600000Y-54275000D03*
X132200000Y-54275000D03*
X135800000Y-54275000D03*
G04 #@! TD*
D34*
G04 #@! TO.C,J7*
X175965000Y-41365000D03*
X182315000Y-41365000D03*
G04 #@! TD*
D15*
G04 #@! TO.C,SWD2*
X175100000Y-58400000D03*
X178700000Y-58400000D03*
X182300000Y-58400000D03*
X185900000Y-58400000D03*
X189500000Y-58400000D03*
X193100000Y-58400000D03*
D33*
X175100000Y-64400000D03*
D17*
X178700000Y-64400000D03*
X182300000Y-64400000D03*
X185900000Y-64400000D03*
X189500000Y-64400000D03*
X193100000Y-64400000D03*
G04 #@! TD*
D15*
G04 #@! TO.C,ALT_CAN0*
X160400000Y-31800000D03*
X160400000Y-35400000D03*
D35*
X154400000Y-31800000D03*
D17*
X154400000Y-35400000D03*
G04 #@! TD*
D29*
G04 #@! TO.C,TERM_1*
X155300000Y-41700000D03*
D30*
X155300000Y-39160000D03*
G04 #@! TD*
D29*
G04 #@! TO.C,USR_BTN1*
X97100000Y-107500000D03*
D30*
X97100000Y-110040000D03*
G04 #@! TD*
D31*
G04 #@! TO.C,J4*
X243500000Y-42500000D03*
G04 #@! TD*
D36*
X107100000Y-57600000D03*
X84000000Y-31000000D03*
X84000000Y-120000000D03*
X265000000Y-31000000D03*
X107100000Y-116200000D03*
X265000000Y-120000000D03*
X237000000Y-116200000D03*
X237000000Y-57600000D03*
M02*
