G04 #@! TF.GenerationSoftware,KiCad,Pcbnew,9.0.4*
G04 #@! TF.CreationDate,2026-03-19T18:54:30+01:00*
G04 #@! TF.ProjectId,PUTM_EV_DASHBOARD_SOCKET_2025,5055544d-5f45-4565-9f44-415348424f41,rev?*
G04 #@! TF.SameCoordinates,Original*
G04 #@! TF.FileFunction,Paste,Top*
G04 #@! TF.FilePolarity,Positive*
%FSLAX46Y46*%
G04 Gerber Fmt 4.6, Leading zero omitted, Abs format (unit mm)*
G04 Created by KiCad (PCBNEW 9.0.4) date 2026-03-19 18:54:30*
%MOMM*%
%LPD*%
G01*
G04 APERTURE LIST*
G04 Aperture macros list*
%AMRoundRect*
0 Rectangle with rounded corners*
0 $1 Rounding radius*
0 $2 $3 $4 $5 $6 $7 $8 $9 X,Y pos of 4 corners*
0 Add a 4 corners polygon primitive as box body*
4,1,4,$2,$3,$4,$5,$6,$7,$8,$9,$2,$3,0*
0 Add four circle primitives for the rounded corners*
1,1,$1+$1,$2,$3*
1,1,$1+$1,$4,$5*
1,1,$1+$1,$6,$7*
1,1,$1+$1,$8,$9*
0 Add four rect primitives between the rounded corners*
20,1,$1+$1,$2,$3,$4,$5,0*
20,1,$1+$1,$4,$5,$6,$7,0*
20,1,$1+$1,$6,$7,$8,$9,0*
20,1,$1+$1,$8,$9,$2,$3,0*%
G04 Aperture macros list end*
%ADD10RoundRect,0.200000X-0.200000X-0.275000X0.200000X-0.275000X0.200000X0.275000X-0.200000X0.275000X0*%
%ADD11RoundRect,0.225000X-0.225000X-0.250000X0.225000X-0.250000X0.225000X0.250000X-0.225000X0.250000X0*%
%ADD12RoundRect,0.250000X0.625000X-0.312500X0.625000X0.312500X-0.625000X0.312500X-0.625000X-0.312500X0*%
%ADD13RoundRect,0.150000X-0.587500X-0.150000X0.587500X-0.150000X0.587500X0.150000X-0.587500X0.150000X0*%
%ADD14RoundRect,0.250000X-0.312500X-0.625000X0.312500X-0.625000X0.312500X0.625000X-0.312500X0.625000X0*%
%ADD15RoundRect,0.150000X0.512500X0.150000X-0.512500X0.150000X-0.512500X-0.150000X0.512500X-0.150000X0*%
%ADD16R,1.100000X2.000000*%
%ADD17R,1.100000X0.800000*%
%ADD18RoundRect,0.200000X-0.275000X0.200000X-0.275000X-0.200000X0.275000X-0.200000X0.275000X0.200000X0*%
%ADD19RoundRect,0.375000X-0.625000X-0.375000X0.625000X-0.375000X0.625000X0.375000X-0.625000X0.375000X0*%
%ADD20RoundRect,0.500000X-0.500000X-1.400000X0.500000X-1.400000X0.500000X1.400000X-0.500000X1.400000X0*%
G04 APERTURE END LIST*
D10*
G04 #@! TO.C,R16*
X158612500Y-95600000D03*
X160262500Y-95600000D03*
G04 #@! TD*
D11*
G04 #@! TO.C,C5*
X241425000Y-78000000D03*
X242975000Y-78000000D03*
G04 #@! TD*
D12*
G04 #@! TO.C,R9*
X96200000Y-41120000D03*
X96200000Y-38195000D03*
G04 #@! TD*
D13*
G04 #@! TO.C,Q4*
X146825000Y-95450000D03*
X146825000Y-97350000D03*
X148700000Y-96400000D03*
G04 #@! TD*
D14*
G04 #@! TO.C,R2*
X85437500Y-65450000D03*
X88362500Y-65450000D03*
G04 #@! TD*
G04 #@! TO.C,R3*
X85537500Y-81535000D03*
X88462500Y-81535000D03*
G04 #@! TD*
G04 #@! TO.C,R1*
X86137500Y-50000000D03*
X89062500Y-50000000D03*
G04 #@! TD*
D11*
G04 #@! TO.C,C4*
X202650000Y-101700000D03*
X204200000Y-101700000D03*
G04 #@! TD*
D15*
G04 #@! TO.C,U2*
X204500000Y-106400000D03*
X204500000Y-105450000D03*
X204500000Y-104500000D03*
X202225000Y-104500000D03*
X202225000Y-106400000D03*
G04 #@! TD*
D16*
G04 #@! TO.C,D1*
X241000000Y-90900000D03*
D17*
X241000000Y-89000000D03*
G04 #@! TD*
D11*
G04 #@! TO.C,C1*
X202150000Y-108400000D03*
X203700000Y-108400000D03*
G04 #@! TD*
D18*
G04 #@! TO.C,R7*
X146750000Y-91215000D03*
X146750000Y-92865000D03*
G04 #@! TD*
D13*
G04 #@! TO.C,Q6*
X163925000Y-95350000D03*
X163925000Y-97250000D03*
X165800000Y-96300000D03*
G04 #@! TD*
D12*
G04 #@! TO.C,R17*
X110700000Y-41120000D03*
X110700000Y-38195000D03*
G04 #@! TD*
D14*
G04 #@! TO.C,R6*
X240875000Y-82200000D03*
X243800000Y-82200000D03*
G04 #@! TD*
D13*
G04 #@! TO.C,Q5*
X154925000Y-95650000D03*
X154925000Y-97550000D03*
X156800000Y-96600000D03*
G04 #@! TD*
D10*
G04 #@! TO.C,R13*
X150512500Y-95400000D03*
X152162500Y-95400000D03*
G04 #@! TD*
D11*
G04 #@! TO.C,C2*
X211850000Y-110700000D03*
X213400000Y-110700000D03*
G04 #@! TD*
D10*
G04 #@! TO.C,R8*
X141250000Y-95300000D03*
X142900000Y-95300000D03*
G04 #@! TD*
D14*
G04 #@! TO.C,R5*
X85537500Y-95400000D03*
X88462500Y-95400000D03*
G04 #@! TD*
D12*
G04 #@! TO.C,R14*
X103700000Y-41120000D03*
X103700000Y-38195000D03*
G04 #@! TD*
D18*
G04 #@! TO.C,R10*
X154862500Y-91650000D03*
X154862500Y-93300000D03*
G04 #@! TD*
D19*
G04 #@! TO.C,Q1*
X244575000Y-86050000D03*
X244575000Y-88350000D03*
D20*
X250875000Y-88350000D03*
D19*
X244575000Y-90650000D03*
G04 #@! TD*
D14*
G04 #@! TO.C,R4*
X85537500Y-110000000D03*
X88462500Y-110000000D03*
G04 #@! TD*
D15*
G04 #@! TO.C,U1*
X214300000Y-106575000D03*
X214300000Y-105625000D03*
X214300000Y-104675000D03*
X212025000Y-104675000D03*
X212025000Y-106575000D03*
G04 #@! TD*
D18*
G04 #@! TO.C,R15*
X163962500Y-90750000D03*
X163962500Y-92400000D03*
G04 #@! TD*
D11*
G04 #@! TO.C,C3*
X211825000Y-101700000D03*
X213375000Y-101700000D03*
G04 #@! TD*
M02*
