%TF.GenerationSoftware,KiCad,Pcbnew,9.0.4*%
%TF.CreationDate,2026-03-19T18:54:30+01:00*%
%TF.ProjectId,PUTM_EV_DASHBOARD_SOCKET_2025,5055544d-5f45-4565-9f44-415348424f41,rev?*%
%TF.SameCoordinates,Original*%
%TF.FileFunction,Drillmap*%
%TF.FilePolarity,Positive*%
%FSLAX45Y45*%
G04 Gerber Fmt 4.5, Leading zero omitted, Abs format (unit mm)*
G04 Created by KiCad (PCBNEW 9.0.4) date 2026-03-19 18:54:30*
%MOMM*%
%LPD*%
G01*
G04 APERTURE LIST*
%ADD10C,0.050000*%
%ADD11C,0.200000*%
%ADD12C,0.100000*%
%ADD13C,0.420000*%
%ADD14C,0.430000*%
%ADD15C,0.440000*%
G04 APERTURE END LIST*
D10*
X7770000Y-2600000D02*
X27100000Y-2600000D01*
X27100000Y-12490000D01*
X7770000Y-12490000D01*
X7770000Y-2600000D01*
D11*
D12*
X9605000Y-3804500D02*
X9635000Y-3834500D01*
X9635000Y-3804500D02*
X9605000Y-3834500D01*
X9995000Y-4482585D02*
X10025000Y-4512585D01*
X10025000Y-4482585D02*
X9995000Y-4512585D01*
X10355000Y-3804500D02*
X10385000Y-3834500D01*
X10385000Y-3804500D02*
X10355000Y-3834500D01*
X10805000Y-4355000D02*
X10835000Y-4385000D01*
X10835000Y-4355000D02*
X10805000Y-4385000D01*
X11055000Y-3804500D02*
X11085000Y-3834500D01*
X11085000Y-3804500D02*
X11055000Y-3834500D01*
X11085000Y-4385000D02*
X11115000Y-4415000D01*
X11115000Y-4385000D02*
X11085000Y-4415000D01*
X14885000Y-10455000D02*
X14915000Y-10485000D01*
X14915000Y-10455000D02*
X14885000Y-10485000D01*
X14910000Y-10600000D02*
X14940000Y-10630000D01*
X14940000Y-10600000D02*
X14910000Y-10630000D01*
X15075000Y-3345000D02*
X15105000Y-3375000D01*
X15105000Y-3345000D02*
X15075000Y-3375000D01*
X15135000Y-10235000D02*
X15165000Y-10265000D01*
X15165000Y-10235000D02*
X15135000Y-10265000D01*
X15255000Y-10515000D02*
X15285000Y-10545000D01*
X15285000Y-10515000D02*
X15255000Y-10545000D01*
X22885000Y-6845000D02*
X22915000Y-6875000D01*
X22915000Y-6845000D02*
X22885000Y-6875000D01*
X12530000Y-5427500D02*
G75*
G02*
X12470000Y-5427500I-30000J0D01*
G01*
X12470000Y-5427500D02*
G75*
G02*
X12530000Y-5427500I30000J0D01*
G01*
X12890000Y-5427500D02*
G75*
G02*
X12830000Y-5427500I-30000J0D01*
G01*
X12830000Y-5427500D02*
G75*
G02*
X12890000Y-5427500I30000J0D01*
G01*
X13250000Y-5427500D02*
G75*
G02*
X13190000Y-5427500I-30000J0D01*
G01*
X13190000Y-5427500D02*
G75*
G02*
X13250000Y-5427500I30000J0D01*
G01*
X13610000Y-5427500D02*
G75*
G02*
X13550000Y-5427500I-30000J0D01*
G01*
X13550000Y-5427500D02*
G75*
G02*
X13610000Y-5427500I30000J0D01*
G01*
X15470000Y-3180000D02*
G75*
G02*
X15410000Y-3180000I-30000J0D01*
G01*
X15410000Y-3180000D02*
G75*
G02*
X15470000Y-3180000I30000J0D01*
G01*
X15470000Y-3540000D02*
G75*
G02*
X15410000Y-3540000I-30000J0D01*
G01*
X15410000Y-3540000D02*
G75*
G02*
X15470000Y-3540000I30000J0D01*
G01*
X17540000Y-6440000D02*
G75*
G02*
X17480000Y-6440000I-30000J0D01*
G01*
X17480000Y-6440000D02*
G75*
G02*
X17540000Y-6440000I30000J0D01*
G01*
X17900000Y-6440000D02*
G75*
G02*
X17840000Y-6440000I-30000J0D01*
G01*
X17840000Y-6440000D02*
G75*
G02*
X17900000Y-6440000I30000J0D01*
G01*
X18260000Y-6440000D02*
G75*
G02*
X18200000Y-6440000I-30000J0D01*
G01*
X18200000Y-6440000D02*
G75*
G02*
X18260000Y-6440000I30000J0D01*
G01*
X18620000Y-6440000D02*
G75*
G02*
X18560000Y-6440000I-30000J0D01*
G01*
X18560000Y-6440000D02*
G75*
G02*
X18620000Y-6440000I30000J0D01*
G01*
X18980000Y-6440000D02*
G75*
G02*
X18920000Y-6440000I-30000J0D01*
G01*
X18920000Y-6440000D02*
G75*
G02*
X18980000Y-6440000I30000J0D01*
G01*
X19340000Y-6440000D02*
G75*
G02*
X19280000Y-6440000I-30000J0D01*
G01*
X19280000Y-6440000D02*
G75*
G02*
X19340000Y-6440000I30000J0D01*
G01*
X22790000Y-9300000D02*
G75*
G02*
X22730000Y-9300000I-30000J0D01*
G01*
X22730000Y-9300000D02*
G75*
G02*
X22790000Y-9300000I30000J0D01*
G01*
X22790000Y-9660000D02*
G75*
G02*
X22730000Y-9660000I-30000J0D01*
G01*
X22730000Y-9660000D02*
G75*
G02*
X22790000Y-9660000I30000J0D01*
G01*
X22790000Y-10020000D02*
G75*
G02*
X22730000Y-10020000I-30000J0D01*
G01*
X22730000Y-10020000D02*
G75*
G02*
X22790000Y-10020000I30000J0D01*
G01*
X22790000Y-10380000D02*
G75*
G02*
X22730000Y-10380000I-30000J0D01*
G01*
X22730000Y-10380000D02*
G75*
G02*
X22790000Y-10380000I30000J0D01*
G01*
X22790000Y-10740000D02*
G75*
G02*
X22730000Y-10740000I-30000J0D01*
G01*
X22730000Y-10740000D02*
G75*
G02*
X22790000Y-10740000I30000J0D01*
G01*
X22790000Y-11100000D02*
G75*
G02*
X22730000Y-11100000I-30000J0D01*
G01*
X22730000Y-11100000D02*
G75*
G02*
X22790000Y-11100000I30000J0D01*
G01*
X19952000Y-3547500D02*
X19952000Y-3612500D01*
X19919500Y-3580000D02*
X19984500Y-3580000D01*
X19952000Y-3674500D02*
X19952000Y-3739500D01*
X19919500Y-3707000D02*
X19984500Y-3707000D01*
X20079000Y-3547500D02*
X20079000Y-3612500D01*
X20046500Y-3580000D02*
X20111500Y-3580000D01*
X20079000Y-3674500D02*
X20079000Y-3739500D01*
X20046500Y-3707000D02*
X20111500Y-3707000D01*
X20206000Y-3547500D02*
X20206000Y-3612500D01*
X20173500Y-3580000D02*
X20238500Y-3580000D01*
X20206000Y-3674500D02*
X20206000Y-3739500D01*
X20173500Y-3707000D02*
X20238500Y-3707000D01*
X20333000Y-3547500D02*
X20333000Y-3612500D01*
X20300500Y-3580000D02*
X20365500Y-3580000D01*
X20333000Y-3674500D02*
X20333000Y-3739500D01*
X20300500Y-3707000D02*
X20365500Y-3707000D01*
X20460000Y-3547500D02*
X20460000Y-3612500D01*
X20427500Y-3580000D02*
X20492500Y-3580000D01*
X20460000Y-3674500D02*
X20460000Y-3739500D01*
X20427500Y-3707000D02*
X20492500Y-3707000D01*
X20587000Y-3547500D02*
X20587000Y-3612500D01*
X20554500Y-3580000D02*
X20619500Y-3580000D01*
X20587000Y-3674500D02*
X20587000Y-3739500D01*
X20554500Y-3707000D02*
X20619500Y-3707000D01*
X20714000Y-3547500D02*
X20714000Y-3612500D01*
X20681500Y-3580000D02*
X20746500Y-3580000D01*
X20714000Y-3674500D02*
X20714000Y-3739500D01*
X20681500Y-3707000D02*
X20746500Y-3707000D01*
X20841000Y-3547500D02*
X20841000Y-3612500D01*
X20808500Y-3580000D02*
X20873500Y-3580000D01*
X20841000Y-3674500D02*
X20841000Y-3739500D01*
X20808500Y-3707000D02*
X20873500Y-3707000D01*
X20968000Y-3547500D02*
X20968000Y-3612500D01*
X20935500Y-3580000D02*
X21000500Y-3580000D01*
X20968000Y-3674500D02*
X20968000Y-3739500D01*
X20935500Y-3707000D02*
X21000500Y-3707000D01*
X21095000Y-3547500D02*
X21095000Y-3612500D01*
X21062500Y-3580000D02*
X21127500Y-3580000D01*
X21095000Y-3674500D02*
X21095000Y-3739500D01*
X21062500Y-3707000D02*
X21127500Y-3707000D01*
X21222000Y-3547500D02*
X21222000Y-3612500D01*
X21189500Y-3580000D02*
X21254500Y-3580000D01*
X21222000Y-3674500D02*
X21222000Y-3739500D01*
X21189500Y-3707000D02*
X21254500Y-3707000D01*
X21349000Y-3547500D02*
X21349000Y-3612500D01*
X21316500Y-3580000D02*
X21381500Y-3580000D01*
X21349000Y-3674500D02*
X21349000Y-3739500D01*
X21316500Y-3707000D02*
X21381500Y-3707000D01*
X21476000Y-3547500D02*
X21476000Y-3612500D01*
X21443500Y-3580000D02*
X21508500Y-3580000D01*
X21476000Y-3674500D02*
X21476000Y-3739500D01*
X21443500Y-3707000D02*
X21508500Y-3707000D01*
X21603000Y-3547500D02*
X21603000Y-3612500D01*
X21570500Y-3580000D02*
X21635500Y-3580000D01*
X21603000Y-3674500D02*
X21603000Y-3739500D01*
X21570500Y-3707000D02*
X21635500Y-3707000D01*
X21730000Y-3547500D02*
X21730000Y-3612500D01*
X21697500Y-3580000D02*
X21762500Y-3580000D01*
X21730000Y-3674500D02*
X21730000Y-3739500D01*
X21697500Y-3707000D02*
X21762500Y-3707000D01*
X21857000Y-3547500D02*
X21857000Y-3612500D01*
X21824500Y-3580000D02*
X21889500Y-3580000D01*
X21857000Y-3674500D02*
X21857000Y-3739500D01*
X21824500Y-3707000D02*
X21889500Y-3707000D01*
X21984000Y-3547500D02*
X21984000Y-3612500D01*
X21951500Y-3580000D02*
X22016500Y-3580000D01*
X21984000Y-3674500D02*
X21984000Y-3739500D01*
X21951500Y-3707000D02*
X22016500Y-3707000D01*
X22111000Y-3547500D02*
X22111000Y-3612500D01*
X22078500Y-3580000D02*
X22143500Y-3580000D01*
X22111000Y-3674500D02*
X22111000Y-3739500D01*
X22078500Y-3707000D02*
X22143500Y-3707000D01*
X22238000Y-3547500D02*
X22238000Y-3612500D01*
X22205500Y-3580000D02*
X22270500Y-3580000D01*
X22238000Y-3674500D02*
X22238000Y-3739500D01*
X22205500Y-3707000D02*
X22270500Y-3707000D01*
X22363000Y-5527500D02*
X22363000Y-5592500D01*
X22330500Y-5560000D02*
X22395500Y-5560000D01*
X22363000Y-5654500D02*
X22363000Y-5719500D01*
X22330500Y-5687000D02*
X22395500Y-5687000D01*
X22363000Y-5781500D02*
X22363000Y-5846500D01*
X22330500Y-5814000D02*
X22395500Y-5814000D01*
X22363000Y-5908500D02*
X22363000Y-5973500D01*
X22330500Y-5941000D02*
X22395500Y-5941000D01*
X22363000Y-6035500D02*
X22363000Y-6100500D01*
X22330500Y-6068000D02*
X22395500Y-6068000D01*
X22363000Y-6162500D02*
X22363000Y-6227500D01*
X22330500Y-6195000D02*
X22395500Y-6195000D01*
X22363000Y-6289500D02*
X22363000Y-6354500D01*
X22330500Y-6322000D02*
X22395500Y-6322000D01*
X22363000Y-6416500D02*
X22363000Y-6481500D01*
X22330500Y-6449000D02*
X22395500Y-6449000D01*
X22363000Y-6543500D02*
X22363000Y-6608500D01*
X22330500Y-6576000D02*
X22395500Y-6576000D01*
X22363000Y-6670500D02*
X22363000Y-6735500D01*
X22330500Y-6703000D02*
X22395500Y-6703000D01*
X22363000Y-6797500D02*
X22363000Y-6862500D01*
X22330500Y-6830000D02*
X22395500Y-6830000D01*
X22363000Y-6924500D02*
X22363000Y-6989500D01*
X22330500Y-6957000D02*
X22395500Y-6957000D01*
X22363000Y-7051500D02*
X22363000Y-7116500D01*
X22330500Y-7084000D02*
X22395500Y-7084000D01*
X22363000Y-7178500D02*
X22363000Y-7243500D01*
X22330500Y-7211000D02*
X22395500Y-7211000D01*
X22363000Y-7305500D02*
X22363000Y-7370500D01*
X22330500Y-7338000D02*
X22395500Y-7338000D01*
X22363000Y-7432500D02*
X22363000Y-7497500D01*
X22330500Y-7465000D02*
X22395500Y-7465000D01*
X22363000Y-7559500D02*
X22363000Y-7624500D01*
X22330500Y-7592000D02*
X22395500Y-7592000D01*
X22363000Y-7686500D02*
X22363000Y-7751500D01*
X22330500Y-7719000D02*
X22395500Y-7719000D01*
X22363000Y-7813500D02*
X22363000Y-7878500D01*
X22330500Y-7846000D02*
X22395500Y-7846000D01*
X22363000Y-7940500D02*
X22363000Y-8005500D01*
X22330500Y-7973000D02*
X22395500Y-7973000D01*
X22365000Y-3547500D02*
X22365000Y-3612500D01*
X22332500Y-3580000D02*
X22397500Y-3580000D01*
X22365000Y-3674500D02*
X22365000Y-3739500D01*
X22332500Y-3707000D02*
X22397500Y-3707000D01*
X22490000Y-5527500D02*
X22490000Y-5592500D01*
X22457500Y-5560000D02*
X22522500Y-5560000D01*
X22490000Y-5654500D02*
X22490000Y-5719500D01*
X22457500Y-5687000D02*
X22522500Y-5687000D01*
X22490000Y-5781500D02*
X22490000Y-5846500D01*
X22457500Y-5814000D02*
X22522500Y-5814000D01*
X22490000Y-5908500D02*
X22490000Y-5973500D01*
X22457500Y-5941000D02*
X22522500Y-5941000D01*
X22490000Y-6035500D02*
X22490000Y-6100500D01*
X22457500Y-6068000D02*
X22522500Y-6068000D01*
X22490000Y-6162500D02*
X22490000Y-6227500D01*
X22457500Y-6195000D02*
X22522500Y-6195000D01*
X22490000Y-6289500D02*
X22490000Y-6354500D01*
X22457500Y-6322000D02*
X22522500Y-6322000D01*
X22490000Y-6416500D02*
X22490000Y-6481500D01*
X22457500Y-6449000D02*
X22522500Y-6449000D01*
X22490000Y-6543500D02*
X22490000Y-6608500D01*
X22457500Y-6576000D02*
X22522500Y-6576000D01*
X22490000Y-6670500D02*
X22490000Y-6735500D01*
X22457500Y-6703000D02*
X22522500Y-6703000D01*
X22490000Y-6797500D02*
X22490000Y-6862500D01*
X22457500Y-6830000D02*
X22522500Y-6830000D01*
X22490000Y-6924500D02*
X22490000Y-6989500D01*
X22457500Y-6957000D02*
X22522500Y-6957000D01*
X22490000Y-7051500D02*
X22490000Y-7116500D01*
X22457500Y-7084000D02*
X22522500Y-7084000D01*
X22490000Y-7178500D02*
X22490000Y-7243500D01*
X22457500Y-7211000D02*
X22522500Y-7211000D01*
X22490000Y-7305500D02*
X22490000Y-7370500D01*
X22457500Y-7338000D02*
X22522500Y-7338000D01*
X22490000Y-7432500D02*
X22490000Y-7497500D01*
X22457500Y-7465000D02*
X22522500Y-7465000D01*
X22490000Y-7559500D02*
X22490000Y-7624500D01*
X22457500Y-7592000D02*
X22522500Y-7592000D01*
X22490000Y-7686500D02*
X22490000Y-7751500D01*
X22457500Y-7719000D02*
X22522500Y-7719000D01*
X22490000Y-7813500D02*
X22490000Y-7878500D01*
X22457500Y-7846000D02*
X22522500Y-7846000D01*
X22490000Y-7940500D02*
X22490000Y-8005500D01*
X22457500Y-7973000D02*
X22522500Y-7973000D01*
X9655356Y-3257856D02*
X9655356Y-3187144D01*
X9584644Y-3187144D01*
X9584644Y-3257856D01*
X9655356Y-3257856D01*
X9655356Y-3511856D02*
X9655356Y-3441144D01*
X9584644Y-3441144D01*
X9584644Y-3511856D01*
X9655356Y-3511856D01*
X9745356Y-5038856D02*
X9745356Y-4968144D01*
X9674644Y-4968144D01*
X9674644Y-5038856D01*
X9745356Y-5038856D01*
X9745356Y-5292856D02*
X9745356Y-5222144D01*
X9674644Y-5222144D01*
X9674644Y-5292856D01*
X9745356Y-5292856D01*
X9745356Y-6327856D02*
X9745356Y-6257144D01*
X9674644Y-6257144D01*
X9674644Y-6327856D01*
X9745356Y-6327856D01*
X9745356Y-6581856D02*
X9745356Y-6511144D01*
X9674644Y-6511144D01*
X9674644Y-6581856D01*
X9745356Y-6581856D01*
X9745356Y-7927856D02*
X9745356Y-7857144D01*
X9674644Y-7857144D01*
X9674644Y-7927856D01*
X9745356Y-7927856D01*
X9745356Y-8181856D02*
X9745356Y-8111144D01*
X9674644Y-8111144D01*
X9674644Y-8181856D01*
X9745356Y-8181856D01*
X9745356Y-9321356D02*
X9745356Y-9250644D01*
X9674644Y-9250644D01*
X9674644Y-9321356D01*
X9745356Y-9321356D01*
X9745356Y-9575356D02*
X9745356Y-9504644D01*
X9674644Y-9504644D01*
X9674644Y-9575356D01*
X9745356Y-9575356D01*
X9745356Y-10785356D02*
X9745356Y-10714644D01*
X9674644Y-10714644D01*
X9674644Y-10785356D01*
X9745356Y-10785356D01*
X9745356Y-11039356D02*
X9745356Y-10968644D01*
X9674644Y-10968644D01*
X9674644Y-11039356D01*
X9745356Y-11039356D01*
X10395356Y-3257856D02*
X10395356Y-3187144D01*
X10324644Y-3187144D01*
X10324644Y-3257856D01*
X10395356Y-3257856D01*
X10395356Y-3511856D02*
X10395356Y-3441144D01*
X10324644Y-3441144D01*
X10324644Y-3511856D01*
X10395356Y-3511856D01*
X11135356Y-3257856D02*
X11135356Y-3187144D01*
X11064644Y-3187144D01*
X11064644Y-3257856D01*
X11135356Y-3257856D01*
X11135356Y-3511856D02*
X11135356Y-3441144D01*
X11064644Y-3441144D01*
X11064644Y-3511856D01*
X11135356Y-3511856D01*
X12728356Y-3485356D02*
X12728356Y-3414644D01*
X12657644Y-3414644D01*
X12657644Y-3485356D01*
X12728356Y-3485356D01*
X12866856Y-3769356D02*
X12866856Y-3698644D01*
X12796144Y-3698644D01*
X12796144Y-3769356D01*
X12866856Y-3769356D01*
X13005356Y-3485356D02*
X13005356Y-3414644D01*
X12934644Y-3414644D01*
X12934644Y-3485356D01*
X13005356Y-3485356D01*
X13143856Y-3769356D02*
X13143856Y-3698644D01*
X13073144Y-3698644D01*
X13073144Y-3769356D01*
X13143856Y-3769356D01*
X13282356Y-3485356D02*
X13282356Y-3414644D01*
X13211644Y-3414644D01*
X13211644Y-3485356D01*
X13282356Y-3485356D01*
X13420856Y-3769356D02*
X13420856Y-3698644D01*
X13350144Y-3698644D01*
X13350144Y-3769356D01*
X13420856Y-3769356D01*
X13559356Y-3485356D02*
X13559356Y-3414644D01*
X13488644Y-3414644D01*
X13488644Y-3485356D01*
X13559356Y-3485356D01*
X13697856Y-3769356D02*
X13697856Y-3698644D01*
X13627144Y-3698644D01*
X13627144Y-3769356D01*
X13697856Y-3769356D01*
X13836356Y-3485356D02*
X13836356Y-3414644D01*
X13765644Y-3414644D01*
X13765644Y-3485356D01*
X13836356Y-3485356D01*
X15565356Y-3951356D02*
X15565356Y-3880644D01*
X15494644Y-3880644D01*
X15494644Y-3951356D01*
X15565356Y-3951356D01*
X15565356Y-4205356D02*
X15565356Y-4134644D01*
X15494644Y-4134644D01*
X15494644Y-4205356D01*
X15565356Y-4205356D01*
X25715356Y-11045356D02*
X25715356Y-10974644D01*
X25644644Y-10974644D01*
X25644644Y-11045356D01*
X25715356Y-11045356D01*
X25730000Y-11135000D02*
X25730000Y-10885000D01*
X25630000Y-10885000D02*
G75*
G02*
X25730000Y-10885000I50000J0D01*
G01*
X25630000Y-10885000D02*
X25630000Y-11135000D01*
X25630000Y-11135000D02*
G75*
G03*
X25730000Y-11135000I50000J0D01*
G01*
X26035356Y-11515356D02*
X26035356Y-11444644D01*
X25964644Y-11444644D01*
X25964644Y-11515356D01*
X26035356Y-11515356D01*
X25900000Y-11530000D02*
X26100000Y-11530000D01*
X26100000Y-11430000D02*
G75*
G02*
X26100000Y-11530000I0J-50000D01*
G01*
X26100000Y-11430000D02*
X25900000Y-11430000D01*
X25900000Y-11430000D02*
G75*
G03*
X25900000Y-11530000I0J-50000D01*
G01*
X26335356Y-11045356D02*
X26335356Y-10974644D01*
X26264644Y-10974644D01*
X26264644Y-11045356D01*
X26335356Y-11045356D01*
X26350000Y-11110000D02*
X26350000Y-10910000D01*
X26250000Y-10910000D02*
G75*
G02*
X26350000Y-10910000I50000J0D01*
G01*
X26250000Y-10910000D02*
X26250000Y-11110000D01*
X26250000Y-11110000D02*
G75*
G03*
X26350000Y-11110000I50000J0D01*
G01*
D13*
X24350000Y-4460000D02*
X24560000Y-4250000D01*
X24350000Y-4040000D01*
X24140000Y-4250000D01*
X24350000Y-4460000D01*
X26200000Y-4460000D02*
X26410000Y-4250000D01*
X26200000Y-4040000D01*
X25990000Y-4250000D01*
X26200000Y-4460000D01*
D14*
X8185000Y-2885000D02*
X8615000Y-3315000D01*
X8615000Y-2885000D02*
X8185000Y-3315000D01*
X8615000Y-3100000D02*
G75*
G02*
X8185000Y-3100000I-215000J0D01*
G01*
X8185000Y-3100000D02*
G75*
G02*
X8615000Y-3100000I215000J0D01*
G01*
X8185000Y-11785000D02*
X8615000Y-12215000D01*
X8615000Y-11785000D02*
X8185000Y-12215000D01*
X8615000Y-12000000D02*
G75*
G02*
X8185000Y-12000000I-215000J0D01*
G01*
X8185000Y-12000000D02*
G75*
G02*
X8615000Y-12000000I215000J0D01*
G01*
X26285000Y-2885000D02*
X26715000Y-3315000D01*
X26715000Y-2885000D02*
X26285000Y-3315000D01*
X26715000Y-3100000D02*
G75*
G02*
X26285000Y-3100000I-215000J0D01*
G01*
X26285000Y-3100000D02*
G75*
G02*
X26715000Y-3100000I215000J0D01*
G01*
X26285000Y-11785000D02*
X26715000Y-12215000D01*
X26715000Y-11785000D02*
X26285000Y-12215000D01*
X26715000Y-12000000D02*
G75*
G02*
X26285000Y-12000000I-215000J0D01*
G01*
X26285000Y-12000000D02*
G75*
G02*
X26715000Y-12000000I215000J0D01*
G01*
D15*
X10490000Y-5540000D02*
X10930000Y-5980000D01*
X10930000Y-5540000D02*
X10490000Y-5980000D01*
X10710000Y-5540000D02*
X10710000Y-5980000D01*
X10490000Y-5760000D02*
X10930000Y-5760000D01*
X10490000Y-11400000D02*
X10930000Y-11840000D01*
X10930000Y-11400000D02*
X10490000Y-11840000D01*
X10710000Y-11400000D02*
X10710000Y-11840000D01*
X10490000Y-11620000D02*
X10930000Y-11620000D01*
X23480000Y-5540000D02*
X23920000Y-5980000D01*
X23920000Y-5540000D02*
X23480000Y-5980000D01*
X23700000Y-5540000D02*
X23700000Y-5980000D01*
X23480000Y-5760000D02*
X23920000Y-5760000D01*
X23480000Y-11400000D02*
X23920000Y-11840000D01*
X23920000Y-11400000D02*
X23480000Y-11840000D01*
X23700000Y-11400000D02*
X23700000Y-11840000D01*
X23480000Y-11620000D02*
X23920000Y-11620000D01*
D11*
X8028277Y-12803984D02*
X8028277Y-12603984D01*
X8028277Y-12603984D02*
X8075896Y-12603984D01*
X8075896Y-12603984D02*
X8104467Y-12613508D01*
X8104467Y-12613508D02*
X8123515Y-12632555D01*
X8123515Y-12632555D02*
X8133039Y-12651603D01*
X8133039Y-12651603D02*
X8142562Y-12689698D01*
X8142562Y-12689698D02*
X8142562Y-12718269D01*
X8142562Y-12718269D02*
X8133039Y-12756365D01*
X8133039Y-12756365D02*
X8123515Y-12775412D01*
X8123515Y-12775412D02*
X8104467Y-12794460D01*
X8104467Y-12794460D02*
X8075896Y-12803984D01*
X8075896Y-12803984D02*
X8028277Y-12803984D01*
X8228277Y-12803984D02*
X8228277Y-12670650D01*
X8228277Y-12708746D02*
X8237801Y-12689698D01*
X8237801Y-12689698D02*
X8247324Y-12680174D01*
X8247324Y-12680174D02*
X8266372Y-12670650D01*
X8266372Y-12670650D02*
X8285420Y-12670650D01*
X8352086Y-12803984D02*
X8352086Y-12670650D01*
X8352086Y-12603984D02*
X8342562Y-12613508D01*
X8342562Y-12613508D02*
X8352086Y-12623031D01*
X8352086Y-12623031D02*
X8361610Y-12613508D01*
X8361610Y-12613508D02*
X8352086Y-12603984D01*
X8352086Y-12603984D02*
X8352086Y-12623031D01*
X8475896Y-12803984D02*
X8456848Y-12794460D01*
X8456848Y-12794460D02*
X8447324Y-12775412D01*
X8447324Y-12775412D02*
X8447324Y-12603984D01*
X8580658Y-12803984D02*
X8561610Y-12794460D01*
X8561610Y-12794460D02*
X8552086Y-12775412D01*
X8552086Y-12775412D02*
X8552086Y-12603984D01*
X8809229Y-12803984D02*
X8809229Y-12603984D01*
X8809229Y-12603984D02*
X8875896Y-12746841D01*
X8875896Y-12746841D02*
X8942563Y-12603984D01*
X8942563Y-12603984D02*
X8942563Y-12803984D01*
X9123515Y-12803984D02*
X9123515Y-12699222D01*
X9123515Y-12699222D02*
X9113991Y-12680174D01*
X9113991Y-12680174D02*
X9094944Y-12670650D01*
X9094944Y-12670650D02*
X9056848Y-12670650D01*
X9056848Y-12670650D02*
X9037801Y-12680174D01*
X9123515Y-12794460D02*
X9104467Y-12803984D01*
X9104467Y-12803984D02*
X9056848Y-12803984D01*
X9056848Y-12803984D02*
X9037801Y-12794460D01*
X9037801Y-12794460D02*
X9028277Y-12775412D01*
X9028277Y-12775412D02*
X9028277Y-12756365D01*
X9028277Y-12756365D02*
X9037801Y-12737317D01*
X9037801Y-12737317D02*
X9056848Y-12727793D01*
X9056848Y-12727793D02*
X9104467Y-12727793D01*
X9104467Y-12727793D02*
X9123515Y-12718269D01*
X9218753Y-12670650D02*
X9218753Y-12870650D01*
X9218753Y-12680174D02*
X9237801Y-12670650D01*
X9237801Y-12670650D02*
X9275896Y-12670650D01*
X9275896Y-12670650D02*
X9294944Y-12680174D01*
X9294944Y-12680174D02*
X9304467Y-12689698D01*
X9304467Y-12689698D02*
X9313991Y-12708746D01*
X9313991Y-12708746D02*
X9313991Y-12765888D01*
X9313991Y-12765888D02*
X9304467Y-12784936D01*
X9304467Y-12784936D02*
X9294944Y-12794460D01*
X9294944Y-12794460D02*
X9275896Y-12803984D01*
X9275896Y-12803984D02*
X9237801Y-12803984D01*
X9237801Y-12803984D02*
X9218753Y-12794460D01*
X9399705Y-12784936D02*
X9409229Y-12794460D01*
X9409229Y-12794460D02*
X9399705Y-12803984D01*
X9399705Y-12803984D02*
X9390182Y-12794460D01*
X9390182Y-12794460D02*
X9399705Y-12784936D01*
X9399705Y-12784936D02*
X9399705Y-12803984D01*
X9399705Y-12680174D02*
X9409229Y-12689698D01*
X9409229Y-12689698D02*
X9399705Y-12699222D01*
X9399705Y-12699222D02*
X9390182Y-12689698D01*
X9390182Y-12689698D02*
X9399705Y-12680174D01*
X9399705Y-12680174D02*
X9399705Y-12699222D01*
D12*
X7737500Y-13117500D02*
X7767500Y-13147500D01*
X7767500Y-13117500D02*
X7737500Y-13147500D01*
D11*
X8066372Y-13023984D02*
X8085420Y-13023984D01*
X8085420Y-13023984D02*
X8104467Y-13033508D01*
X8104467Y-13033508D02*
X8113991Y-13043031D01*
X8113991Y-13043031D02*
X8123515Y-13062079D01*
X8123515Y-13062079D02*
X8133039Y-13100174D01*
X8133039Y-13100174D02*
X8133039Y-13147793D01*
X8133039Y-13147793D02*
X8123515Y-13185888D01*
X8123515Y-13185888D02*
X8113991Y-13204936D01*
X8113991Y-13204936D02*
X8104467Y-13214460D01*
X8104467Y-13214460D02*
X8085420Y-13223984D01*
X8085420Y-13223984D02*
X8066372Y-13223984D01*
X8066372Y-13223984D02*
X8047324Y-13214460D01*
X8047324Y-13214460D02*
X8037801Y-13204936D01*
X8037801Y-13204936D02*
X8028277Y-13185888D01*
X8028277Y-13185888D02*
X8018753Y-13147793D01*
X8018753Y-13147793D02*
X8018753Y-13100174D01*
X8018753Y-13100174D02*
X8028277Y-13062079D01*
X8028277Y-13062079D02*
X8037801Y-13043031D01*
X8037801Y-13043031D02*
X8047324Y-13033508D01*
X8047324Y-13033508D02*
X8066372Y-13023984D01*
X8218753Y-13204936D02*
X8228277Y-13214460D01*
X8228277Y-13214460D02*
X8218753Y-13223984D01*
X8218753Y-13223984D02*
X8209229Y-13214460D01*
X8209229Y-13214460D02*
X8218753Y-13204936D01*
X8218753Y-13204936D02*
X8218753Y-13223984D01*
X8294943Y-13023984D02*
X8418753Y-13023984D01*
X8418753Y-13023984D02*
X8352086Y-13100174D01*
X8352086Y-13100174D02*
X8380658Y-13100174D01*
X8380658Y-13100174D02*
X8399705Y-13109698D01*
X8399705Y-13109698D02*
X8409229Y-13119222D01*
X8409229Y-13119222D02*
X8418753Y-13138269D01*
X8418753Y-13138269D02*
X8418753Y-13185888D01*
X8418753Y-13185888D02*
X8409229Y-13204936D01*
X8409229Y-13204936D02*
X8399705Y-13214460D01*
X8399705Y-13214460D02*
X8380658Y-13223984D01*
X8380658Y-13223984D02*
X8323515Y-13223984D01*
X8323515Y-13223984D02*
X8304467Y-13214460D01*
X8304467Y-13214460D02*
X8294943Y-13204936D01*
X8542563Y-13023984D02*
X8561610Y-13023984D01*
X8561610Y-13023984D02*
X8580658Y-13033508D01*
X8580658Y-13033508D02*
X8590182Y-13043031D01*
X8590182Y-13043031D02*
X8599705Y-13062079D01*
X8599705Y-13062079D02*
X8609229Y-13100174D01*
X8609229Y-13100174D02*
X8609229Y-13147793D01*
X8609229Y-13147793D02*
X8599705Y-13185888D01*
X8599705Y-13185888D02*
X8590182Y-13204936D01*
X8590182Y-13204936D02*
X8580658Y-13214460D01*
X8580658Y-13214460D02*
X8561610Y-13223984D01*
X8561610Y-13223984D02*
X8542563Y-13223984D01*
X8542563Y-13223984D02*
X8523515Y-13214460D01*
X8523515Y-13214460D02*
X8513991Y-13204936D01*
X8513991Y-13204936D02*
X8504467Y-13185888D01*
X8504467Y-13185888D02*
X8494944Y-13147793D01*
X8494944Y-13147793D02*
X8494944Y-13100174D01*
X8494944Y-13100174D02*
X8504467Y-13062079D01*
X8504467Y-13062079D02*
X8513991Y-13043031D01*
X8513991Y-13043031D02*
X8523515Y-13033508D01*
X8523515Y-13033508D02*
X8542563Y-13023984D01*
X8733039Y-13023984D02*
X8752086Y-13023984D01*
X8752086Y-13023984D02*
X8771134Y-13033508D01*
X8771134Y-13033508D02*
X8780658Y-13043031D01*
X8780658Y-13043031D02*
X8790182Y-13062079D01*
X8790182Y-13062079D02*
X8799705Y-13100174D01*
X8799705Y-13100174D02*
X8799705Y-13147793D01*
X8799705Y-13147793D02*
X8790182Y-13185888D01*
X8790182Y-13185888D02*
X8780658Y-13204936D01*
X8780658Y-13204936D02*
X8771134Y-13214460D01*
X8771134Y-13214460D02*
X8752086Y-13223984D01*
X8752086Y-13223984D02*
X8733039Y-13223984D01*
X8733039Y-13223984D02*
X8713991Y-13214460D01*
X8713991Y-13214460D02*
X8704467Y-13204936D01*
X8704467Y-13204936D02*
X8694944Y-13185888D01*
X8694944Y-13185888D02*
X8685420Y-13147793D01*
X8685420Y-13147793D02*
X8685420Y-13100174D01*
X8685420Y-13100174D02*
X8694944Y-13062079D01*
X8694944Y-13062079D02*
X8704467Y-13043031D01*
X8704467Y-13043031D02*
X8713991Y-13033508D01*
X8713991Y-13033508D02*
X8733039Y-13023984D01*
X8885420Y-13223984D02*
X8885420Y-13090650D01*
X8885420Y-13109698D02*
X8894944Y-13100174D01*
X8894944Y-13100174D02*
X8913991Y-13090650D01*
X8913991Y-13090650D02*
X8942563Y-13090650D01*
X8942563Y-13090650D02*
X8961610Y-13100174D01*
X8961610Y-13100174D02*
X8971134Y-13119222D01*
X8971134Y-13119222D02*
X8971134Y-13223984D01*
X8971134Y-13119222D02*
X8980658Y-13100174D01*
X8980658Y-13100174D02*
X8999705Y-13090650D01*
X8999705Y-13090650D02*
X9028277Y-13090650D01*
X9028277Y-13090650D02*
X9047325Y-13100174D01*
X9047325Y-13100174D02*
X9056848Y-13119222D01*
X9056848Y-13119222D02*
X9056848Y-13223984D01*
X9152086Y-13223984D02*
X9152086Y-13090650D01*
X9152086Y-13109698D02*
X9161610Y-13100174D01*
X9161610Y-13100174D02*
X9180658Y-13090650D01*
X9180658Y-13090650D02*
X9209229Y-13090650D01*
X9209229Y-13090650D02*
X9228277Y-13100174D01*
X9228277Y-13100174D02*
X9237801Y-13119222D01*
X9237801Y-13119222D02*
X9237801Y-13223984D01*
X9237801Y-13119222D02*
X9247325Y-13100174D01*
X9247325Y-13100174D02*
X9266372Y-13090650D01*
X9266372Y-13090650D02*
X9294944Y-13090650D01*
X9294944Y-13090650D02*
X9313991Y-13100174D01*
X9313991Y-13100174D02*
X9323515Y-13119222D01*
X9323515Y-13119222D02*
X9323515Y-13223984D01*
X9713991Y-13014460D02*
X9542563Y-13271603D01*
X9971134Y-13023984D02*
X9990182Y-13023984D01*
X9990182Y-13023984D02*
X10009229Y-13033508D01*
X10009229Y-13033508D02*
X10018753Y-13043031D01*
X10018753Y-13043031D02*
X10028277Y-13062079D01*
X10028277Y-13062079D02*
X10037801Y-13100174D01*
X10037801Y-13100174D02*
X10037801Y-13147793D01*
X10037801Y-13147793D02*
X10028277Y-13185888D01*
X10028277Y-13185888D02*
X10018753Y-13204936D01*
X10018753Y-13204936D02*
X10009229Y-13214460D01*
X10009229Y-13214460D02*
X9990182Y-13223984D01*
X9990182Y-13223984D02*
X9971134Y-13223984D01*
X9971134Y-13223984D02*
X9952087Y-13214460D01*
X9952087Y-13214460D02*
X9942563Y-13204936D01*
X9942563Y-13204936D02*
X9933039Y-13185888D01*
X9933039Y-13185888D02*
X9923515Y-13147793D01*
X9923515Y-13147793D02*
X9923515Y-13100174D01*
X9923515Y-13100174D02*
X9933039Y-13062079D01*
X9933039Y-13062079D02*
X9942563Y-13043031D01*
X9942563Y-13043031D02*
X9952087Y-13033508D01*
X9952087Y-13033508D02*
X9971134Y-13023984D01*
X10123515Y-13204936D02*
X10133039Y-13214460D01*
X10133039Y-13214460D02*
X10123515Y-13223984D01*
X10123515Y-13223984D02*
X10113991Y-13214460D01*
X10113991Y-13214460D02*
X10123515Y-13204936D01*
X10123515Y-13204936D02*
X10123515Y-13223984D01*
X10256848Y-13023984D02*
X10275896Y-13023984D01*
X10275896Y-13023984D02*
X10294944Y-13033508D01*
X10294944Y-13033508D02*
X10304468Y-13043031D01*
X10304468Y-13043031D02*
X10313991Y-13062079D01*
X10313991Y-13062079D02*
X10323515Y-13100174D01*
X10323515Y-13100174D02*
X10323515Y-13147793D01*
X10323515Y-13147793D02*
X10313991Y-13185888D01*
X10313991Y-13185888D02*
X10304468Y-13204936D01*
X10304468Y-13204936D02*
X10294944Y-13214460D01*
X10294944Y-13214460D02*
X10275896Y-13223984D01*
X10275896Y-13223984D02*
X10256848Y-13223984D01*
X10256848Y-13223984D02*
X10237801Y-13214460D01*
X10237801Y-13214460D02*
X10228277Y-13204936D01*
X10228277Y-13204936D02*
X10218753Y-13185888D01*
X10218753Y-13185888D02*
X10209229Y-13147793D01*
X10209229Y-13147793D02*
X10209229Y-13100174D01*
X10209229Y-13100174D02*
X10218753Y-13062079D01*
X10218753Y-13062079D02*
X10228277Y-13043031D01*
X10228277Y-13043031D02*
X10237801Y-13033508D01*
X10237801Y-13033508D02*
X10256848Y-13023984D01*
X10513991Y-13223984D02*
X10399706Y-13223984D01*
X10456848Y-13223984D02*
X10456848Y-13023984D01*
X10456848Y-13023984D02*
X10437801Y-13052555D01*
X10437801Y-13052555D02*
X10418753Y-13071603D01*
X10418753Y-13071603D02*
X10399706Y-13081127D01*
X10704468Y-13223984D02*
X10590182Y-13223984D01*
X10647325Y-13223984D02*
X10647325Y-13023984D01*
X10647325Y-13023984D02*
X10628277Y-13052555D01*
X10628277Y-13052555D02*
X10609229Y-13071603D01*
X10609229Y-13071603D02*
X10590182Y-13081127D01*
X10818753Y-13109698D02*
X10799706Y-13100174D01*
X10799706Y-13100174D02*
X10790182Y-13090650D01*
X10790182Y-13090650D02*
X10780658Y-13071603D01*
X10780658Y-13071603D02*
X10780658Y-13062079D01*
X10780658Y-13062079D02*
X10790182Y-13043031D01*
X10790182Y-13043031D02*
X10799706Y-13033508D01*
X10799706Y-13033508D02*
X10818753Y-13023984D01*
X10818753Y-13023984D02*
X10856849Y-13023984D01*
X10856849Y-13023984D02*
X10875896Y-13033508D01*
X10875896Y-13033508D02*
X10885420Y-13043031D01*
X10885420Y-13043031D02*
X10894944Y-13062079D01*
X10894944Y-13062079D02*
X10894944Y-13071603D01*
X10894944Y-13071603D02*
X10885420Y-13090650D01*
X10885420Y-13090650D02*
X10875896Y-13100174D01*
X10875896Y-13100174D02*
X10856849Y-13109698D01*
X10856849Y-13109698D02*
X10818753Y-13109698D01*
X10818753Y-13109698D02*
X10799706Y-13119222D01*
X10799706Y-13119222D02*
X10790182Y-13128746D01*
X10790182Y-13128746D02*
X10780658Y-13147793D01*
X10780658Y-13147793D02*
X10780658Y-13185888D01*
X10780658Y-13185888D02*
X10790182Y-13204936D01*
X10790182Y-13204936D02*
X10799706Y-13214460D01*
X10799706Y-13214460D02*
X10818753Y-13223984D01*
X10818753Y-13223984D02*
X10856849Y-13223984D01*
X10856849Y-13223984D02*
X10875896Y-13214460D01*
X10875896Y-13214460D02*
X10885420Y-13204936D01*
X10885420Y-13204936D02*
X10894944Y-13185888D01*
X10894944Y-13185888D02*
X10894944Y-13147793D01*
X10894944Y-13147793D02*
X10885420Y-13128746D01*
X10885420Y-13128746D02*
X10875896Y-13119222D01*
X10875896Y-13119222D02*
X10856849Y-13109698D01*
X10971134Y-13023984D02*
X10971134Y-13062079D01*
X11047325Y-13023984D02*
X11047325Y-13062079D01*
X11342563Y-13300174D02*
X11333039Y-13290650D01*
X11333039Y-13290650D02*
X11313991Y-13262079D01*
X11313991Y-13262079D02*
X11304468Y-13243031D01*
X11304468Y-13243031D02*
X11294944Y-13214460D01*
X11294944Y-13214460D02*
X11285420Y-13166841D01*
X11285420Y-13166841D02*
X11285420Y-13128746D01*
X11285420Y-13128746D02*
X11294944Y-13081127D01*
X11294944Y-13081127D02*
X11304468Y-13052555D01*
X11304468Y-13052555D02*
X11313991Y-13033508D01*
X11313991Y-13033508D02*
X11333039Y-13004936D01*
X11333039Y-13004936D02*
X11342563Y-12995412D01*
X11523515Y-13223984D02*
X11409229Y-13223984D01*
X11466372Y-13223984D02*
X11466372Y-13023984D01*
X11466372Y-13023984D02*
X11447325Y-13052555D01*
X11447325Y-13052555D02*
X11428277Y-13071603D01*
X11428277Y-13071603D02*
X11409229Y-13081127D01*
X11599706Y-13043031D02*
X11609229Y-13033508D01*
X11609229Y-13033508D02*
X11628277Y-13023984D01*
X11628277Y-13023984D02*
X11675896Y-13023984D01*
X11675896Y-13023984D02*
X11694944Y-13033508D01*
X11694944Y-13033508D02*
X11704468Y-13043031D01*
X11704468Y-13043031D02*
X11713991Y-13062079D01*
X11713991Y-13062079D02*
X11713991Y-13081127D01*
X11713991Y-13081127D02*
X11704468Y-13109698D01*
X11704468Y-13109698D02*
X11590182Y-13223984D01*
X11590182Y-13223984D02*
X11713991Y-13223984D01*
X11952087Y-13223984D02*
X11952087Y-13023984D01*
X12037801Y-13223984D02*
X12037801Y-13119222D01*
X12037801Y-13119222D02*
X12028277Y-13100174D01*
X12028277Y-13100174D02*
X12009230Y-13090650D01*
X12009230Y-13090650D02*
X11980658Y-13090650D01*
X11980658Y-13090650D02*
X11961610Y-13100174D01*
X11961610Y-13100174D02*
X11952087Y-13109698D01*
X12161610Y-13223984D02*
X12142563Y-13214460D01*
X12142563Y-13214460D02*
X12133039Y-13204936D01*
X12133039Y-13204936D02*
X12123515Y-13185888D01*
X12123515Y-13185888D02*
X12123515Y-13128746D01*
X12123515Y-13128746D02*
X12133039Y-13109698D01*
X12133039Y-13109698D02*
X12142563Y-13100174D01*
X12142563Y-13100174D02*
X12161610Y-13090650D01*
X12161610Y-13090650D02*
X12190182Y-13090650D01*
X12190182Y-13090650D02*
X12209230Y-13100174D01*
X12209230Y-13100174D02*
X12218753Y-13109698D01*
X12218753Y-13109698D02*
X12228277Y-13128746D01*
X12228277Y-13128746D02*
X12228277Y-13185888D01*
X12228277Y-13185888D02*
X12218753Y-13204936D01*
X12218753Y-13204936D02*
X12209230Y-13214460D01*
X12209230Y-13214460D02*
X12190182Y-13223984D01*
X12190182Y-13223984D02*
X12161610Y-13223984D01*
X12342563Y-13223984D02*
X12323515Y-13214460D01*
X12323515Y-13214460D02*
X12313991Y-13195412D01*
X12313991Y-13195412D02*
X12313991Y-13023984D01*
X12494944Y-13214460D02*
X12475896Y-13223984D01*
X12475896Y-13223984D02*
X12437801Y-13223984D01*
X12437801Y-13223984D02*
X12418753Y-13214460D01*
X12418753Y-13214460D02*
X12409230Y-13195412D01*
X12409230Y-13195412D02*
X12409230Y-13119222D01*
X12409230Y-13119222D02*
X12418753Y-13100174D01*
X12418753Y-13100174D02*
X12437801Y-13090650D01*
X12437801Y-13090650D02*
X12475896Y-13090650D01*
X12475896Y-13090650D02*
X12494944Y-13100174D01*
X12494944Y-13100174D02*
X12504468Y-13119222D01*
X12504468Y-13119222D02*
X12504468Y-13138269D01*
X12504468Y-13138269D02*
X12409230Y-13157317D01*
X12580658Y-13214460D02*
X12599706Y-13223984D01*
X12599706Y-13223984D02*
X12637801Y-13223984D01*
X12637801Y-13223984D02*
X12656849Y-13214460D01*
X12656849Y-13214460D02*
X12666372Y-13195412D01*
X12666372Y-13195412D02*
X12666372Y-13185888D01*
X12666372Y-13185888D02*
X12656849Y-13166841D01*
X12656849Y-13166841D02*
X12637801Y-13157317D01*
X12637801Y-13157317D02*
X12609230Y-13157317D01*
X12609230Y-13157317D02*
X12590182Y-13147793D01*
X12590182Y-13147793D02*
X12580658Y-13128746D01*
X12580658Y-13128746D02*
X12580658Y-13119222D01*
X12580658Y-13119222D02*
X12590182Y-13100174D01*
X12590182Y-13100174D02*
X12609230Y-13090650D01*
X12609230Y-13090650D02*
X12637801Y-13090650D01*
X12637801Y-13090650D02*
X12656849Y-13100174D01*
X12733039Y-13300174D02*
X12742563Y-13290650D01*
X12742563Y-13290650D02*
X12761611Y-13262079D01*
X12761611Y-13262079D02*
X12771134Y-13243031D01*
X12771134Y-13243031D02*
X12780658Y-13214460D01*
X12780658Y-13214460D02*
X12790182Y-13166841D01*
X12790182Y-13166841D02*
X12790182Y-13128746D01*
X12790182Y-13128746D02*
X12780658Y-13081127D01*
X12780658Y-13081127D02*
X12771134Y-13052555D01*
X12771134Y-13052555D02*
X12761611Y-13033508D01*
X12761611Y-13033508D02*
X12742563Y-13004936D01*
X12742563Y-13004936D02*
X12733039Y-12995412D01*
D12*
X7767500Y-13396500D02*
G75*
G02*
X7707500Y-13396500I-30000J0D01*
G01*
X7707500Y-13396500D02*
G75*
G02*
X7767500Y-13396500I30000J0D01*
G01*
D11*
X8066372Y-13287984D02*
X8085420Y-13287984D01*
X8085420Y-13287984D02*
X8104467Y-13297508D01*
X8104467Y-13297508D02*
X8113991Y-13307031D01*
X8113991Y-13307031D02*
X8123515Y-13326079D01*
X8123515Y-13326079D02*
X8133039Y-13364174D01*
X8133039Y-13364174D02*
X8133039Y-13411793D01*
X8133039Y-13411793D02*
X8123515Y-13449888D01*
X8123515Y-13449888D02*
X8113991Y-13468936D01*
X8113991Y-13468936D02*
X8104467Y-13478460D01*
X8104467Y-13478460D02*
X8085420Y-13487984D01*
X8085420Y-13487984D02*
X8066372Y-13487984D01*
X8066372Y-13487984D02*
X8047324Y-13478460D01*
X8047324Y-13478460D02*
X8037801Y-13468936D01*
X8037801Y-13468936D02*
X8028277Y-13449888D01*
X8028277Y-13449888D02*
X8018753Y-13411793D01*
X8018753Y-13411793D02*
X8018753Y-13364174D01*
X8018753Y-13364174D02*
X8028277Y-13326079D01*
X8028277Y-13326079D02*
X8037801Y-13307031D01*
X8037801Y-13307031D02*
X8047324Y-13297508D01*
X8047324Y-13297508D02*
X8066372Y-13287984D01*
X8218753Y-13468936D02*
X8228277Y-13478460D01*
X8228277Y-13478460D02*
X8218753Y-13487984D01*
X8218753Y-13487984D02*
X8209229Y-13478460D01*
X8209229Y-13478460D02*
X8218753Y-13468936D01*
X8218753Y-13468936D02*
X8218753Y-13487984D01*
X8399705Y-13287984D02*
X8361610Y-13287984D01*
X8361610Y-13287984D02*
X8342562Y-13297508D01*
X8342562Y-13297508D02*
X8333039Y-13307031D01*
X8333039Y-13307031D02*
X8313991Y-13335603D01*
X8313991Y-13335603D02*
X8304467Y-13373698D01*
X8304467Y-13373698D02*
X8304467Y-13449888D01*
X8304467Y-13449888D02*
X8313991Y-13468936D01*
X8313991Y-13468936D02*
X8323515Y-13478460D01*
X8323515Y-13478460D02*
X8342562Y-13487984D01*
X8342562Y-13487984D02*
X8380658Y-13487984D01*
X8380658Y-13487984D02*
X8399705Y-13478460D01*
X8399705Y-13478460D02*
X8409229Y-13468936D01*
X8409229Y-13468936D02*
X8418753Y-13449888D01*
X8418753Y-13449888D02*
X8418753Y-13402269D01*
X8418753Y-13402269D02*
X8409229Y-13383222D01*
X8409229Y-13383222D02*
X8399705Y-13373698D01*
X8399705Y-13373698D02*
X8380658Y-13364174D01*
X8380658Y-13364174D02*
X8342562Y-13364174D01*
X8342562Y-13364174D02*
X8323515Y-13373698D01*
X8323515Y-13373698D02*
X8313991Y-13383222D01*
X8313991Y-13383222D02*
X8304467Y-13402269D01*
X8542563Y-13287984D02*
X8561610Y-13287984D01*
X8561610Y-13287984D02*
X8580658Y-13297508D01*
X8580658Y-13297508D02*
X8590182Y-13307031D01*
X8590182Y-13307031D02*
X8599705Y-13326079D01*
X8599705Y-13326079D02*
X8609229Y-13364174D01*
X8609229Y-13364174D02*
X8609229Y-13411793D01*
X8609229Y-13411793D02*
X8599705Y-13449888D01*
X8599705Y-13449888D02*
X8590182Y-13468936D01*
X8590182Y-13468936D02*
X8580658Y-13478460D01*
X8580658Y-13478460D02*
X8561610Y-13487984D01*
X8561610Y-13487984D02*
X8542563Y-13487984D01*
X8542563Y-13487984D02*
X8523515Y-13478460D01*
X8523515Y-13478460D02*
X8513991Y-13468936D01*
X8513991Y-13468936D02*
X8504467Y-13449888D01*
X8504467Y-13449888D02*
X8494944Y-13411793D01*
X8494944Y-13411793D02*
X8494944Y-13364174D01*
X8494944Y-13364174D02*
X8504467Y-13326079D01*
X8504467Y-13326079D02*
X8513991Y-13307031D01*
X8513991Y-13307031D02*
X8523515Y-13297508D01*
X8523515Y-13297508D02*
X8542563Y-13287984D01*
X8733039Y-13287984D02*
X8752086Y-13287984D01*
X8752086Y-13287984D02*
X8771134Y-13297508D01*
X8771134Y-13297508D02*
X8780658Y-13307031D01*
X8780658Y-13307031D02*
X8790182Y-13326079D01*
X8790182Y-13326079D02*
X8799705Y-13364174D01*
X8799705Y-13364174D02*
X8799705Y-13411793D01*
X8799705Y-13411793D02*
X8790182Y-13449888D01*
X8790182Y-13449888D02*
X8780658Y-13468936D01*
X8780658Y-13468936D02*
X8771134Y-13478460D01*
X8771134Y-13478460D02*
X8752086Y-13487984D01*
X8752086Y-13487984D02*
X8733039Y-13487984D01*
X8733039Y-13487984D02*
X8713991Y-13478460D01*
X8713991Y-13478460D02*
X8704467Y-13468936D01*
X8704467Y-13468936D02*
X8694944Y-13449888D01*
X8694944Y-13449888D02*
X8685420Y-13411793D01*
X8685420Y-13411793D02*
X8685420Y-13364174D01*
X8685420Y-13364174D02*
X8694944Y-13326079D01*
X8694944Y-13326079D02*
X8704467Y-13307031D01*
X8704467Y-13307031D02*
X8713991Y-13297508D01*
X8713991Y-13297508D02*
X8733039Y-13287984D01*
X8885420Y-13487984D02*
X8885420Y-13354650D01*
X8885420Y-13373698D02*
X8894944Y-13364174D01*
X8894944Y-13364174D02*
X8913991Y-13354650D01*
X8913991Y-13354650D02*
X8942563Y-13354650D01*
X8942563Y-13354650D02*
X8961610Y-13364174D01*
X8961610Y-13364174D02*
X8971134Y-13383222D01*
X8971134Y-13383222D02*
X8971134Y-13487984D01*
X8971134Y-13383222D02*
X8980658Y-13364174D01*
X8980658Y-13364174D02*
X8999705Y-13354650D01*
X8999705Y-13354650D02*
X9028277Y-13354650D01*
X9028277Y-13354650D02*
X9047325Y-13364174D01*
X9047325Y-13364174D02*
X9056848Y-13383222D01*
X9056848Y-13383222D02*
X9056848Y-13487984D01*
X9152086Y-13487984D02*
X9152086Y-13354650D01*
X9152086Y-13373698D02*
X9161610Y-13364174D01*
X9161610Y-13364174D02*
X9180658Y-13354650D01*
X9180658Y-13354650D02*
X9209229Y-13354650D01*
X9209229Y-13354650D02*
X9228277Y-13364174D01*
X9228277Y-13364174D02*
X9237801Y-13383222D01*
X9237801Y-13383222D02*
X9237801Y-13487984D01*
X9237801Y-13383222D02*
X9247325Y-13364174D01*
X9247325Y-13364174D02*
X9266372Y-13354650D01*
X9266372Y-13354650D02*
X9294944Y-13354650D01*
X9294944Y-13354650D02*
X9313991Y-13364174D01*
X9313991Y-13364174D02*
X9323515Y-13383222D01*
X9323515Y-13383222D02*
X9323515Y-13487984D01*
X9713991Y-13278460D02*
X9542563Y-13535603D01*
X9971134Y-13287984D02*
X9990182Y-13287984D01*
X9990182Y-13287984D02*
X10009229Y-13297508D01*
X10009229Y-13297508D02*
X10018753Y-13307031D01*
X10018753Y-13307031D02*
X10028277Y-13326079D01*
X10028277Y-13326079D02*
X10037801Y-13364174D01*
X10037801Y-13364174D02*
X10037801Y-13411793D01*
X10037801Y-13411793D02*
X10028277Y-13449888D01*
X10028277Y-13449888D02*
X10018753Y-13468936D01*
X10018753Y-13468936D02*
X10009229Y-13478460D01*
X10009229Y-13478460D02*
X9990182Y-13487984D01*
X9990182Y-13487984D02*
X9971134Y-13487984D01*
X9971134Y-13487984D02*
X9952087Y-13478460D01*
X9952087Y-13478460D02*
X9942563Y-13468936D01*
X9942563Y-13468936D02*
X9933039Y-13449888D01*
X9933039Y-13449888D02*
X9923515Y-13411793D01*
X9923515Y-13411793D02*
X9923515Y-13364174D01*
X9923515Y-13364174D02*
X9933039Y-13326079D01*
X9933039Y-13326079D02*
X9942563Y-13307031D01*
X9942563Y-13307031D02*
X9952087Y-13297508D01*
X9952087Y-13297508D02*
X9971134Y-13287984D01*
X10123515Y-13468936D02*
X10133039Y-13478460D01*
X10133039Y-13478460D02*
X10123515Y-13487984D01*
X10123515Y-13487984D02*
X10113991Y-13478460D01*
X10113991Y-13478460D02*
X10123515Y-13468936D01*
X10123515Y-13468936D02*
X10123515Y-13487984D01*
X10256848Y-13287984D02*
X10275896Y-13287984D01*
X10275896Y-13287984D02*
X10294944Y-13297508D01*
X10294944Y-13297508D02*
X10304468Y-13307031D01*
X10304468Y-13307031D02*
X10313991Y-13326079D01*
X10313991Y-13326079D02*
X10323515Y-13364174D01*
X10323515Y-13364174D02*
X10323515Y-13411793D01*
X10323515Y-13411793D02*
X10313991Y-13449888D01*
X10313991Y-13449888D02*
X10304468Y-13468936D01*
X10304468Y-13468936D02*
X10294944Y-13478460D01*
X10294944Y-13478460D02*
X10275896Y-13487984D01*
X10275896Y-13487984D02*
X10256848Y-13487984D01*
X10256848Y-13487984D02*
X10237801Y-13478460D01*
X10237801Y-13478460D02*
X10228277Y-13468936D01*
X10228277Y-13468936D02*
X10218753Y-13449888D01*
X10218753Y-13449888D02*
X10209229Y-13411793D01*
X10209229Y-13411793D02*
X10209229Y-13364174D01*
X10209229Y-13364174D02*
X10218753Y-13326079D01*
X10218753Y-13326079D02*
X10228277Y-13307031D01*
X10228277Y-13307031D02*
X10237801Y-13297508D01*
X10237801Y-13297508D02*
X10256848Y-13287984D01*
X10399706Y-13307031D02*
X10409229Y-13297508D01*
X10409229Y-13297508D02*
X10428277Y-13287984D01*
X10428277Y-13287984D02*
X10475896Y-13287984D01*
X10475896Y-13287984D02*
X10494944Y-13297508D01*
X10494944Y-13297508D02*
X10504468Y-13307031D01*
X10504468Y-13307031D02*
X10513991Y-13326079D01*
X10513991Y-13326079D02*
X10513991Y-13345127D01*
X10513991Y-13345127D02*
X10504468Y-13373698D01*
X10504468Y-13373698D02*
X10390182Y-13487984D01*
X10390182Y-13487984D02*
X10513991Y-13487984D01*
X10580658Y-13287984D02*
X10704468Y-13287984D01*
X10704468Y-13287984D02*
X10637801Y-13364174D01*
X10637801Y-13364174D02*
X10666372Y-13364174D01*
X10666372Y-13364174D02*
X10685420Y-13373698D01*
X10685420Y-13373698D02*
X10694944Y-13383222D01*
X10694944Y-13383222D02*
X10704468Y-13402269D01*
X10704468Y-13402269D02*
X10704468Y-13449888D01*
X10704468Y-13449888D02*
X10694944Y-13468936D01*
X10694944Y-13468936D02*
X10685420Y-13478460D01*
X10685420Y-13478460D02*
X10666372Y-13487984D01*
X10666372Y-13487984D02*
X10609229Y-13487984D01*
X10609229Y-13487984D02*
X10590182Y-13478460D01*
X10590182Y-13478460D02*
X10580658Y-13468936D01*
X10875896Y-13287984D02*
X10837801Y-13287984D01*
X10837801Y-13287984D02*
X10818753Y-13297508D01*
X10818753Y-13297508D02*
X10809229Y-13307031D01*
X10809229Y-13307031D02*
X10790182Y-13335603D01*
X10790182Y-13335603D02*
X10780658Y-13373698D01*
X10780658Y-13373698D02*
X10780658Y-13449888D01*
X10780658Y-13449888D02*
X10790182Y-13468936D01*
X10790182Y-13468936D02*
X10799706Y-13478460D01*
X10799706Y-13478460D02*
X10818753Y-13487984D01*
X10818753Y-13487984D02*
X10856849Y-13487984D01*
X10856849Y-13487984D02*
X10875896Y-13478460D01*
X10875896Y-13478460D02*
X10885420Y-13468936D01*
X10885420Y-13468936D02*
X10894944Y-13449888D01*
X10894944Y-13449888D02*
X10894944Y-13402269D01*
X10894944Y-13402269D02*
X10885420Y-13383222D01*
X10885420Y-13383222D02*
X10875896Y-13373698D01*
X10875896Y-13373698D02*
X10856849Y-13364174D01*
X10856849Y-13364174D02*
X10818753Y-13364174D01*
X10818753Y-13364174D02*
X10799706Y-13373698D01*
X10799706Y-13373698D02*
X10790182Y-13383222D01*
X10790182Y-13383222D02*
X10780658Y-13402269D01*
X10971134Y-13287984D02*
X10971134Y-13326079D01*
X11047325Y-13287984D02*
X11047325Y-13326079D01*
X11342563Y-13564174D02*
X11333039Y-13554650D01*
X11333039Y-13554650D02*
X11313991Y-13526079D01*
X11313991Y-13526079D02*
X11304468Y-13507031D01*
X11304468Y-13507031D02*
X11294944Y-13478460D01*
X11294944Y-13478460D02*
X11285420Y-13430841D01*
X11285420Y-13430841D02*
X11285420Y-13392746D01*
X11285420Y-13392746D02*
X11294944Y-13345127D01*
X11294944Y-13345127D02*
X11304468Y-13316555D01*
X11304468Y-13316555D02*
X11313991Y-13297508D01*
X11313991Y-13297508D02*
X11333039Y-13268936D01*
X11333039Y-13268936D02*
X11342563Y-13259412D01*
X11523515Y-13487984D02*
X11409229Y-13487984D01*
X11466372Y-13487984D02*
X11466372Y-13287984D01*
X11466372Y-13287984D02*
X11447325Y-13316555D01*
X11447325Y-13316555D02*
X11428277Y-13335603D01*
X11428277Y-13335603D02*
X11409229Y-13345127D01*
X11637801Y-13373698D02*
X11618753Y-13364174D01*
X11618753Y-13364174D02*
X11609229Y-13354650D01*
X11609229Y-13354650D02*
X11599706Y-13335603D01*
X11599706Y-13335603D02*
X11599706Y-13326079D01*
X11599706Y-13326079D02*
X11609229Y-13307031D01*
X11609229Y-13307031D02*
X11618753Y-13297508D01*
X11618753Y-13297508D02*
X11637801Y-13287984D01*
X11637801Y-13287984D02*
X11675896Y-13287984D01*
X11675896Y-13287984D02*
X11694944Y-13297508D01*
X11694944Y-13297508D02*
X11704468Y-13307031D01*
X11704468Y-13307031D02*
X11713991Y-13326079D01*
X11713991Y-13326079D02*
X11713991Y-13335603D01*
X11713991Y-13335603D02*
X11704468Y-13354650D01*
X11704468Y-13354650D02*
X11694944Y-13364174D01*
X11694944Y-13364174D02*
X11675896Y-13373698D01*
X11675896Y-13373698D02*
X11637801Y-13373698D01*
X11637801Y-13373698D02*
X11618753Y-13383222D01*
X11618753Y-13383222D02*
X11609229Y-13392746D01*
X11609229Y-13392746D02*
X11599706Y-13411793D01*
X11599706Y-13411793D02*
X11599706Y-13449888D01*
X11599706Y-13449888D02*
X11609229Y-13468936D01*
X11609229Y-13468936D02*
X11618753Y-13478460D01*
X11618753Y-13478460D02*
X11637801Y-13487984D01*
X11637801Y-13487984D02*
X11675896Y-13487984D01*
X11675896Y-13487984D02*
X11694944Y-13478460D01*
X11694944Y-13478460D02*
X11704468Y-13468936D01*
X11704468Y-13468936D02*
X11713991Y-13449888D01*
X11713991Y-13449888D02*
X11713991Y-13411793D01*
X11713991Y-13411793D02*
X11704468Y-13392746D01*
X11704468Y-13392746D02*
X11694944Y-13383222D01*
X11694944Y-13383222D02*
X11675896Y-13373698D01*
X11952087Y-13487984D02*
X11952087Y-13287984D01*
X12037801Y-13487984D02*
X12037801Y-13383222D01*
X12037801Y-13383222D02*
X12028277Y-13364174D01*
X12028277Y-13364174D02*
X12009230Y-13354650D01*
X12009230Y-13354650D02*
X11980658Y-13354650D01*
X11980658Y-13354650D02*
X11961610Y-13364174D01*
X11961610Y-13364174D02*
X11952087Y-13373698D01*
X12161610Y-13487984D02*
X12142563Y-13478460D01*
X12142563Y-13478460D02*
X12133039Y-13468936D01*
X12133039Y-13468936D02*
X12123515Y-13449888D01*
X12123515Y-13449888D02*
X12123515Y-13392746D01*
X12123515Y-13392746D02*
X12133039Y-13373698D01*
X12133039Y-13373698D02*
X12142563Y-13364174D01*
X12142563Y-13364174D02*
X12161610Y-13354650D01*
X12161610Y-13354650D02*
X12190182Y-13354650D01*
X12190182Y-13354650D02*
X12209230Y-13364174D01*
X12209230Y-13364174D02*
X12218753Y-13373698D01*
X12218753Y-13373698D02*
X12228277Y-13392746D01*
X12228277Y-13392746D02*
X12228277Y-13449888D01*
X12228277Y-13449888D02*
X12218753Y-13468936D01*
X12218753Y-13468936D02*
X12209230Y-13478460D01*
X12209230Y-13478460D02*
X12190182Y-13487984D01*
X12190182Y-13487984D02*
X12161610Y-13487984D01*
X12342563Y-13487984D02*
X12323515Y-13478460D01*
X12323515Y-13478460D02*
X12313991Y-13459412D01*
X12313991Y-13459412D02*
X12313991Y-13287984D01*
X12494944Y-13478460D02*
X12475896Y-13487984D01*
X12475896Y-13487984D02*
X12437801Y-13487984D01*
X12437801Y-13487984D02*
X12418753Y-13478460D01*
X12418753Y-13478460D02*
X12409230Y-13459412D01*
X12409230Y-13459412D02*
X12409230Y-13383222D01*
X12409230Y-13383222D02*
X12418753Y-13364174D01*
X12418753Y-13364174D02*
X12437801Y-13354650D01*
X12437801Y-13354650D02*
X12475896Y-13354650D01*
X12475896Y-13354650D02*
X12494944Y-13364174D01*
X12494944Y-13364174D02*
X12504468Y-13383222D01*
X12504468Y-13383222D02*
X12504468Y-13402269D01*
X12504468Y-13402269D02*
X12409230Y-13421317D01*
X12580658Y-13478460D02*
X12599706Y-13487984D01*
X12599706Y-13487984D02*
X12637801Y-13487984D01*
X12637801Y-13487984D02*
X12656849Y-13478460D01*
X12656849Y-13478460D02*
X12666372Y-13459412D01*
X12666372Y-13459412D02*
X12666372Y-13449888D01*
X12666372Y-13449888D02*
X12656849Y-13430841D01*
X12656849Y-13430841D02*
X12637801Y-13421317D01*
X12637801Y-13421317D02*
X12609230Y-13421317D01*
X12609230Y-13421317D02*
X12590182Y-13411793D01*
X12590182Y-13411793D02*
X12580658Y-13392746D01*
X12580658Y-13392746D02*
X12580658Y-13383222D01*
X12580658Y-13383222D02*
X12590182Y-13364174D01*
X12590182Y-13364174D02*
X12609230Y-13354650D01*
X12609230Y-13354650D02*
X12637801Y-13354650D01*
X12637801Y-13354650D02*
X12656849Y-13364174D01*
X12733039Y-13564174D02*
X12742563Y-13554650D01*
X12742563Y-13554650D02*
X12761611Y-13526079D01*
X12761611Y-13526079D02*
X12771134Y-13507031D01*
X12771134Y-13507031D02*
X12780658Y-13478460D01*
X12780658Y-13478460D02*
X12790182Y-13430841D01*
X12790182Y-13430841D02*
X12790182Y-13392746D01*
X12790182Y-13392746D02*
X12780658Y-13345127D01*
X12780658Y-13345127D02*
X12771134Y-13316555D01*
X12771134Y-13316555D02*
X12761611Y-13297508D01*
X12761611Y-13297508D02*
X12742563Y-13268936D01*
X12742563Y-13268936D02*
X12733039Y-13259412D01*
D12*
X7735000Y-13628000D02*
X7735000Y-13693000D01*
X7702500Y-13660500D02*
X7767500Y-13660500D01*
D11*
X8066372Y-13551984D02*
X8085420Y-13551984D01*
X8085420Y-13551984D02*
X8104467Y-13561508D01*
X8104467Y-13561508D02*
X8113991Y-13571031D01*
X8113991Y-13571031D02*
X8123515Y-13590079D01*
X8123515Y-13590079D02*
X8133039Y-13628174D01*
X8133039Y-13628174D02*
X8133039Y-13675793D01*
X8133039Y-13675793D02*
X8123515Y-13713888D01*
X8123515Y-13713888D02*
X8113991Y-13732936D01*
X8113991Y-13732936D02*
X8104467Y-13742460D01*
X8104467Y-13742460D02*
X8085420Y-13751984D01*
X8085420Y-13751984D02*
X8066372Y-13751984D01*
X8066372Y-13751984D02*
X8047324Y-13742460D01*
X8047324Y-13742460D02*
X8037801Y-13732936D01*
X8037801Y-13732936D02*
X8028277Y-13713888D01*
X8028277Y-13713888D02*
X8018753Y-13675793D01*
X8018753Y-13675793D02*
X8018753Y-13628174D01*
X8018753Y-13628174D02*
X8028277Y-13590079D01*
X8028277Y-13590079D02*
X8037801Y-13571031D01*
X8037801Y-13571031D02*
X8047324Y-13561508D01*
X8047324Y-13561508D02*
X8066372Y-13551984D01*
X8218753Y-13732936D02*
X8228277Y-13742460D01*
X8228277Y-13742460D02*
X8218753Y-13751984D01*
X8218753Y-13751984D02*
X8209229Y-13742460D01*
X8209229Y-13742460D02*
X8218753Y-13732936D01*
X8218753Y-13732936D02*
X8218753Y-13751984D01*
X8399705Y-13551984D02*
X8361610Y-13551984D01*
X8361610Y-13551984D02*
X8342562Y-13561508D01*
X8342562Y-13561508D02*
X8333039Y-13571031D01*
X8333039Y-13571031D02*
X8313991Y-13599603D01*
X8313991Y-13599603D02*
X8304467Y-13637698D01*
X8304467Y-13637698D02*
X8304467Y-13713888D01*
X8304467Y-13713888D02*
X8313991Y-13732936D01*
X8313991Y-13732936D02*
X8323515Y-13742460D01*
X8323515Y-13742460D02*
X8342562Y-13751984D01*
X8342562Y-13751984D02*
X8380658Y-13751984D01*
X8380658Y-13751984D02*
X8399705Y-13742460D01*
X8399705Y-13742460D02*
X8409229Y-13732936D01*
X8409229Y-13732936D02*
X8418753Y-13713888D01*
X8418753Y-13713888D02*
X8418753Y-13666269D01*
X8418753Y-13666269D02*
X8409229Y-13647222D01*
X8409229Y-13647222D02*
X8399705Y-13637698D01*
X8399705Y-13637698D02*
X8380658Y-13628174D01*
X8380658Y-13628174D02*
X8342562Y-13628174D01*
X8342562Y-13628174D02*
X8323515Y-13637698D01*
X8323515Y-13637698D02*
X8313991Y-13647222D01*
X8313991Y-13647222D02*
X8304467Y-13666269D01*
X8599705Y-13551984D02*
X8504467Y-13551984D01*
X8504467Y-13551984D02*
X8494944Y-13647222D01*
X8494944Y-13647222D02*
X8504467Y-13637698D01*
X8504467Y-13637698D02*
X8523515Y-13628174D01*
X8523515Y-13628174D02*
X8571134Y-13628174D01*
X8571134Y-13628174D02*
X8590182Y-13637698D01*
X8590182Y-13637698D02*
X8599705Y-13647222D01*
X8599705Y-13647222D02*
X8609229Y-13666269D01*
X8609229Y-13666269D02*
X8609229Y-13713888D01*
X8609229Y-13713888D02*
X8599705Y-13732936D01*
X8599705Y-13732936D02*
X8590182Y-13742460D01*
X8590182Y-13742460D02*
X8571134Y-13751984D01*
X8571134Y-13751984D02*
X8523515Y-13751984D01*
X8523515Y-13751984D02*
X8504467Y-13742460D01*
X8504467Y-13742460D02*
X8494944Y-13732936D01*
X8733039Y-13551984D02*
X8752086Y-13551984D01*
X8752086Y-13551984D02*
X8771134Y-13561508D01*
X8771134Y-13561508D02*
X8780658Y-13571031D01*
X8780658Y-13571031D02*
X8790182Y-13590079D01*
X8790182Y-13590079D02*
X8799705Y-13628174D01*
X8799705Y-13628174D02*
X8799705Y-13675793D01*
X8799705Y-13675793D02*
X8790182Y-13713888D01*
X8790182Y-13713888D02*
X8780658Y-13732936D01*
X8780658Y-13732936D02*
X8771134Y-13742460D01*
X8771134Y-13742460D02*
X8752086Y-13751984D01*
X8752086Y-13751984D02*
X8733039Y-13751984D01*
X8733039Y-13751984D02*
X8713991Y-13742460D01*
X8713991Y-13742460D02*
X8704467Y-13732936D01*
X8704467Y-13732936D02*
X8694944Y-13713888D01*
X8694944Y-13713888D02*
X8685420Y-13675793D01*
X8685420Y-13675793D02*
X8685420Y-13628174D01*
X8685420Y-13628174D02*
X8694944Y-13590079D01*
X8694944Y-13590079D02*
X8704467Y-13571031D01*
X8704467Y-13571031D02*
X8713991Y-13561508D01*
X8713991Y-13561508D02*
X8733039Y-13551984D01*
X8885420Y-13751984D02*
X8885420Y-13618650D01*
X8885420Y-13637698D02*
X8894944Y-13628174D01*
X8894944Y-13628174D02*
X8913991Y-13618650D01*
X8913991Y-13618650D02*
X8942563Y-13618650D01*
X8942563Y-13618650D02*
X8961610Y-13628174D01*
X8961610Y-13628174D02*
X8971134Y-13647222D01*
X8971134Y-13647222D02*
X8971134Y-13751984D01*
X8971134Y-13647222D02*
X8980658Y-13628174D01*
X8980658Y-13628174D02*
X8999705Y-13618650D01*
X8999705Y-13618650D02*
X9028277Y-13618650D01*
X9028277Y-13618650D02*
X9047325Y-13628174D01*
X9047325Y-13628174D02*
X9056848Y-13647222D01*
X9056848Y-13647222D02*
X9056848Y-13751984D01*
X9152086Y-13751984D02*
X9152086Y-13618650D01*
X9152086Y-13637698D02*
X9161610Y-13628174D01*
X9161610Y-13628174D02*
X9180658Y-13618650D01*
X9180658Y-13618650D02*
X9209229Y-13618650D01*
X9209229Y-13618650D02*
X9228277Y-13628174D01*
X9228277Y-13628174D02*
X9237801Y-13647222D01*
X9237801Y-13647222D02*
X9237801Y-13751984D01*
X9237801Y-13647222D02*
X9247325Y-13628174D01*
X9247325Y-13628174D02*
X9266372Y-13618650D01*
X9266372Y-13618650D02*
X9294944Y-13618650D01*
X9294944Y-13618650D02*
X9313991Y-13628174D01*
X9313991Y-13628174D02*
X9323515Y-13647222D01*
X9323515Y-13647222D02*
X9323515Y-13751984D01*
X9713991Y-13542460D02*
X9542563Y-13799603D01*
X9971134Y-13551984D02*
X9990182Y-13551984D01*
X9990182Y-13551984D02*
X10009229Y-13561508D01*
X10009229Y-13561508D02*
X10018753Y-13571031D01*
X10018753Y-13571031D02*
X10028277Y-13590079D01*
X10028277Y-13590079D02*
X10037801Y-13628174D01*
X10037801Y-13628174D02*
X10037801Y-13675793D01*
X10037801Y-13675793D02*
X10028277Y-13713888D01*
X10028277Y-13713888D02*
X10018753Y-13732936D01*
X10018753Y-13732936D02*
X10009229Y-13742460D01*
X10009229Y-13742460D02*
X9990182Y-13751984D01*
X9990182Y-13751984D02*
X9971134Y-13751984D01*
X9971134Y-13751984D02*
X9952087Y-13742460D01*
X9952087Y-13742460D02*
X9942563Y-13732936D01*
X9942563Y-13732936D02*
X9933039Y-13713888D01*
X9933039Y-13713888D02*
X9923515Y-13675793D01*
X9923515Y-13675793D02*
X9923515Y-13628174D01*
X9923515Y-13628174D02*
X9933039Y-13590079D01*
X9933039Y-13590079D02*
X9942563Y-13571031D01*
X9942563Y-13571031D02*
X9952087Y-13561508D01*
X9952087Y-13561508D02*
X9971134Y-13551984D01*
X10123515Y-13732936D02*
X10133039Y-13742460D01*
X10133039Y-13742460D02*
X10123515Y-13751984D01*
X10123515Y-13751984D02*
X10113991Y-13742460D01*
X10113991Y-13742460D02*
X10123515Y-13732936D01*
X10123515Y-13732936D02*
X10123515Y-13751984D01*
X10256848Y-13551984D02*
X10275896Y-13551984D01*
X10275896Y-13551984D02*
X10294944Y-13561508D01*
X10294944Y-13561508D02*
X10304468Y-13571031D01*
X10304468Y-13571031D02*
X10313991Y-13590079D01*
X10313991Y-13590079D02*
X10323515Y-13628174D01*
X10323515Y-13628174D02*
X10323515Y-13675793D01*
X10323515Y-13675793D02*
X10313991Y-13713888D01*
X10313991Y-13713888D02*
X10304468Y-13732936D01*
X10304468Y-13732936D02*
X10294944Y-13742460D01*
X10294944Y-13742460D02*
X10275896Y-13751984D01*
X10275896Y-13751984D02*
X10256848Y-13751984D01*
X10256848Y-13751984D02*
X10237801Y-13742460D01*
X10237801Y-13742460D02*
X10228277Y-13732936D01*
X10228277Y-13732936D02*
X10218753Y-13713888D01*
X10218753Y-13713888D02*
X10209229Y-13675793D01*
X10209229Y-13675793D02*
X10209229Y-13628174D01*
X10209229Y-13628174D02*
X10218753Y-13590079D01*
X10218753Y-13590079D02*
X10228277Y-13571031D01*
X10228277Y-13571031D02*
X10237801Y-13561508D01*
X10237801Y-13561508D02*
X10256848Y-13551984D01*
X10399706Y-13571031D02*
X10409229Y-13561508D01*
X10409229Y-13561508D02*
X10428277Y-13551984D01*
X10428277Y-13551984D02*
X10475896Y-13551984D01*
X10475896Y-13551984D02*
X10494944Y-13561508D01*
X10494944Y-13561508D02*
X10504468Y-13571031D01*
X10504468Y-13571031D02*
X10513991Y-13590079D01*
X10513991Y-13590079D02*
X10513991Y-13609127D01*
X10513991Y-13609127D02*
X10504468Y-13637698D01*
X10504468Y-13637698D02*
X10390182Y-13751984D01*
X10390182Y-13751984D02*
X10513991Y-13751984D01*
X10694944Y-13551984D02*
X10599706Y-13551984D01*
X10599706Y-13551984D02*
X10590182Y-13647222D01*
X10590182Y-13647222D02*
X10599706Y-13637698D01*
X10599706Y-13637698D02*
X10618753Y-13628174D01*
X10618753Y-13628174D02*
X10666372Y-13628174D01*
X10666372Y-13628174D02*
X10685420Y-13637698D01*
X10685420Y-13637698D02*
X10694944Y-13647222D01*
X10694944Y-13647222D02*
X10704468Y-13666269D01*
X10704468Y-13666269D02*
X10704468Y-13713888D01*
X10704468Y-13713888D02*
X10694944Y-13732936D01*
X10694944Y-13732936D02*
X10685420Y-13742460D01*
X10685420Y-13742460D02*
X10666372Y-13751984D01*
X10666372Y-13751984D02*
X10618753Y-13751984D01*
X10618753Y-13751984D02*
X10599706Y-13742460D01*
X10599706Y-13742460D02*
X10590182Y-13732936D01*
X10875896Y-13551984D02*
X10837801Y-13551984D01*
X10837801Y-13551984D02*
X10818753Y-13561508D01*
X10818753Y-13561508D02*
X10809229Y-13571031D01*
X10809229Y-13571031D02*
X10790182Y-13599603D01*
X10790182Y-13599603D02*
X10780658Y-13637698D01*
X10780658Y-13637698D02*
X10780658Y-13713888D01*
X10780658Y-13713888D02*
X10790182Y-13732936D01*
X10790182Y-13732936D02*
X10799706Y-13742460D01*
X10799706Y-13742460D02*
X10818753Y-13751984D01*
X10818753Y-13751984D02*
X10856849Y-13751984D01*
X10856849Y-13751984D02*
X10875896Y-13742460D01*
X10875896Y-13742460D02*
X10885420Y-13732936D01*
X10885420Y-13732936D02*
X10894944Y-13713888D01*
X10894944Y-13713888D02*
X10894944Y-13666269D01*
X10894944Y-13666269D02*
X10885420Y-13647222D01*
X10885420Y-13647222D02*
X10875896Y-13637698D01*
X10875896Y-13637698D02*
X10856849Y-13628174D01*
X10856849Y-13628174D02*
X10818753Y-13628174D01*
X10818753Y-13628174D02*
X10799706Y-13637698D01*
X10799706Y-13637698D02*
X10790182Y-13647222D01*
X10790182Y-13647222D02*
X10780658Y-13666269D01*
X10971134Y-13551984D02*
X10971134Y-13590079D01*
X11047325Y-13551984D02*
X11047325Y-13590079D01*
X11342563Y-13828174D02*
X11333039Y-13818650D01*
X11333039Y-13818650D02*
X11313991Y-13790079D01*
X11313991Y-13790079D02*
X11304468Y-13771031D01*
X11304468Y-13771031D02*
X11294944Y-13742460D01*
X11294944Y-13742460D02*
X11285420Y-13694841D01*
X11285420Y-13694841D02*
X11285420Y-13656746D01*
X11285420Y-13656746D02*
X11294944Y-13609127D01*
X11294944Y-13609127D02*
X11304468Y-13580555D01*
X11304468Y-13580555D02*
X11313991Y-13561508D01*
X11313991Y-13561508D02*
X11333039Y-13532936D01*
X11333039Y-13532936D02*
X11342563Y-13523412D01*
X11447325Y-13637698D02*
X11428277Y-13628174D01*
X11428277Y-13628174D02*
X11418753Y-13618650D01*
X11418753Y-13618650D02*
X11409229Y-13599603D01*
X11409229Y-13599603D02*
X11409229Y-13590079D01*
X11409229Y-13590079D02*
X11418753Y-13571031D01*
X11418753Y-13571031D02*
X11428277Y-13561508D01*
X11428277Y-13561508D02*
X11447325Y-13551984D01*
X11447325Y-13551984D02*
X11485420Y-13551984D01*
X11485420Y-13551984D02*
X11504468Y-13561508D01*
X11504468Y-13561508D02*
X11513991Y-13571031D01*
X11513991Y-13571031D02*
X11523515Y-13590079D01*
X11523515Y-13590079D02*
X11523515Y-13599603D01*
X11523515Y-13599603D02*
X11513991Y-13618650D01*
X11513991Y-13618650D02*
X11504468Y-13628174D01*
X11504468Y-13628174D02*
X11485420Y-13637698D01*
X11485420Y-13637698D02*
X11447325Y-13637698D01*
X11447325Y-13637698D02*
X11428277Y-13647222D01*
X11428277Y-13647222D02*
X11418753Y-13656746D01*
X11418753Y-13656746D02*
X11409229Y-13675793D01*
X11409229Y-13675793D02*
X11409229Y-13713888D01*
X11409229Y-13713888D02*
X11418753Y-13732936D01*
X11418753Y-13732936D02*
X11428277Y-13742460D01*
X11428277Y-13742460D02*
X11447325Y-13751984D01*
X11447325Y-13751984D02*
X11485420Y-13751984D01*
X11485420Y-13751984D02*
X11504468Y-13742460D01*
X11504468Y-13742460D02*
X11513991Y-13732936D01*
X11513991Y-13732936D02*
X11523515Y-13713888D01*
X11523515Y-13713888D02*
X11523515Y-13675793D01*
X11523515Y-13675793D02*
X11513991Y-13656746D01*
X11513991Y-13656746D02*
X11504468Y-13647222D01*
X11504468Y-13647222D02*
X11485420Y-13637698D01*
X11647325Y-13551984D02*
X11666372Y-13551984D01*
X11666372Y-13551984D02*
X11685420Y-13561508D01*
X11685420Y-13561508D02*
X11694944Y-13571031D01*
X11694944Y-13571031D02*
X11704468Y-13590079D01*
X11704468Y-13590079D02*
X11713991Y-13628174D01*
X11713991Y-13628174D02*
X11713991Y-13675793D01*
X11713991Y-13675793D02*
X11704468Y-13713888D01*
X11704468Y-13713888D02*
X11694944Y-13732936D01*
X11694944Y-13732936D02*
X11685420Y-13742460D01*
X11685420Y-13742460D02*
X11666372Y-13751984D01*
X11666372Y-13751984D02*
X11647325Y-13751984D01*
X11647325Y-13751984D02*
X11628277Y-13742460D01*
X11628277Y-13742460D02*
X11618753Y-13732936D01*
X11618753Y-13732936D02*
X11609229Y-13713888D01*
X11609229Y-13713888D02*
X11599706Y-13675793D01*
X11599706Y-13675793D02*
X11599706Y-13628174D01*
X11599706Y-13628174D02*
X11609229Y-13590079D01*
X11609229Y-13590079D02*
X11618753Y-13571031D01*
X11618753Y-13571031D02*
X11628277Y-13561508D01*
X11628277Y-13561508D02*
X11647325Y-13551984D01*
X11952087Y-13751984D02*
X11952087Y-13551984D01*
X12037801Y-13751984D02*
X12037801Y-13647222D01*
X12037801Y-13647222D02*
X12028277Y-13628174D01*
X12028277Y-13628174D02*
X12009230Y-13618650D01*
X12009230Y-13618650D02*
X11980658Y-13618650D01*
X11980658Y-13618650D02*
X11961610Y-13628174D01*
X11961610Y-13628174D02*
X11952087Y-13637698D01*
X12161610Y-13751984D02*
X12142563Y-13742460D01*
X12142563Y-13742460D02*
X12133039Y-13732936D01*
X12133039Y-13732936D02*
X12123515Y-13713888D01*
X12123515Y-13713888D02*
X12123515Y-13656746D01*
X12123515Y-13656746D02*
X12133039Y-13637698D01*
X12133039Y-13637698D02*
X12142563Y-13628174D01*
X12142563Y-13628174D02*
X12161610Y-13618650D01*
X12161610Y-13618650D02*
X12190182Y-13618650D01*
X12190182Y-13618650D02*
X12209230Y-13628174D01*
X12209230Y-13628174D02*
X12218753Y-13637698D01*
X12218753Y-13637698D02*
X12228277Y-13656746D01*
X12228277Y-13656746D02*
X12228277Y-13713888D01*
X12228277Y-13713888D02*
X12218753Y-13732936D01*
X12218753Y-13732936D02*
X12209230Y-13742460D01*
X12209230Y-13742460D02*
X12190182Y-13751984D01*
X12190182Y-13751984D02*
X12161610Y-13751984D01*
X12342563Y-13751984D02*
X12323515Y-13742460D01*
X12323515Y-13742460D02*
X12313991Y-13723412D01*
X12313991Y-13723412D02*
X12313991Y-13551984D01*
X12494944Y-13742460D02*
X12475896Y-13751984D01*
X12475896Y-13751984D02*
X12437801Y-13751984D01*
X12437801Y-13751984D02*
X12418753Y-13742460D01*
X12418753Y-13742460D02*
X12409230Y-13723412D01*
X12409230Y-13723412D02*
X12409230Y-13647222D01*
X12409230Y-13647222D02*
X12418753Y-13628174D01*
X12418753Y-13628174D02*
X12437801Y-13618650D01*
X12437801Y-13618650D02*
X12475896Y-13618650D01*
X12475896Y-13618650D02*
X12494944Y-13628174D01*
X12494944Y-13628174D02*
X12504468Y-13647222D01*
X12504468Y-13647222D02*
X12504468Y-13666269D01*
X12504468Y-13666269D02*
X12409230Y-13685317D01*
X12580658Y-13742460D02*
X12599706Y-13751984D01*
X12599706Y-13751984D02*
X12637801Y-13751984D01*
X12637801Y-13751984D02*
X12656849Y-13742460D01*
X12656849Y-13742460D02*
X12666372Y-13723412D01*
X12666372Y-13723412D02*
X12666372Y-13713888D01*
X12666372Y-13713888D02*
X12656849Y-13694841D01*
X12656849Y-13694841D02*
X12637801Y-13685317D01*
X12637801Y-13685317D02*
X12609230Y-13685317D01*
X12609230Y-13685317D02*
X12590182Y-13675793D01*
X12590182Y-13675793D02*
X12580658Y-13656746D01*
X12580658Y-13656746D02*
X12580658Y-13647222D01*
X12580658Y-13647222D02*
X12590182Y-13628174D01*
X12590182Y-13628174D02*
X12609230Y-13618650D01*
X12609230Y-13618650D02*
X12637801Y-13618650D01*
X12637801Y-13618650D02*
X12656849Y-13628174D01*
X12733039Y-13828174D02*
X12742563Y-13818650D01*
X12742563Y-13818650D02*
X12761611Y-13790079D01*
X12761611Y-13790079D02*
X12771134Y-13771031D01*
X12771134Y-13771031D02*
X12780658Y-13742460D01*
X12780658Y-13742460D02*
X12790182Y-13694841D01*
X12790182Y-13694841D02*
X12790182Y-13656746D01*
X12790182Y-13656746D02*
X12780658Y-13609127D01*
X12780658Y-13609127D02*
X12771134Y-13580555D01*
X12771134Y-13580555D02*
X12761611Y-13561508D01*
X12761611Y-13561508D02*
X12742563Y-13532936D01*
X12742563Y-13532936D02*
X12733039Y-13523412D01*
D12*
X7752856Y-13959856D02*
X7752856Y-13889144D01*
X7682144Y-13889144D01*
X7682144Y-13959856D01*
X7752856Y-13959856D01*
D11*
X8133039Y-14015984D02*
X8018753Y-14015984D01*
X8075896Y-14015984D02*
X8075896Y-13815984D01*
X8075896Y-13815984D02*
X8056848Y-13844555D01*
X8056848Y-13844555D02*
X8037801Y-13863603D01*
X8037801Y-13863603D02*
X8018753Y-13873127D01*
X8218753Y-13996936D02*
X8228277Y-14006460D01*
X8228277Y-14006460D02*
X8218753Y-14015984D01*
X8218753Y-14015984D02*
X8209229Y-14006460D01*
X8209229Y-14006460D02*
X8218753Y-13996936D01*
X8218753Y-13996936D02*
X8218753Y-14015984D01*
X8352086Y-13815984D02*
X8371134Y-13815984D01*
X8371134Y-13815984D02*
X8390182Y-13825508D01*
X8390182Y-13825508D02*
X8399705Y-13835031D01*
X8399705Y-13835031D02*
X8409229Y-13854079D01*
X8409229Y-13854079D02*
X8418753Y-13892174D01*
X8418753Y-13892174D02*
X8418753Y-13939793D01*
X8418753Y-13939793D02*
X8409229Y-13977888D01*
X8409229Y-13977888D02*
X8399705Y-13996936D01*
X8399705Y-13996936D02*
X8390182Y-14006460D01*
X8390182Y-14006460D02*
X8371134Y-14015984D01*
X8371134Y-14015984D02*
X8352086Y-14015984D01*
X8352086Y-14015984D02*
X8333039Y-14006460D01*
X8333039Y-14006460D02*
X8323515Y-13996936D01*
X8323515Y-13996936D02*
X8313991Y-13977888D01*
X8313991Y-13977888D02*
X8304467Y-13939793D01*
X8304467Y-13939793D02*
X8304467Y-13892174D01*
X8304467Y-13892174D02*
X8313991Y-13854079D01*
X8313991Y-13854079D02*
X8323515Y-13835031D01*
X8323515Y-13835031D02*
X8333039Y-13825508D01*
X8333039Y-13825508D02*
X8352086Y-13815984D01*
X8542563Y-13815984D02*
X8561610Y-13815984D01*
X8561610Y-13815984D02*
X8580658Y-13825508D01*
X8580658Y-13825508D02*
X8590182Y-13835031D01*
X8590182Y-13835031D02*
X8599705Y-13854079D01*
X8599705Y-13854079D02*
X8609229Y-13892174D01*
X8609229Y-13892174D02*
X8609229Y-13939793D01*
X8609229Y-13939793D02*
X8599705Y-13977888D01*
X8599705Y-13977888D02*
X8590182Y-13996936D01*
X8590182Y-13996936D02*
X8580658Y-14006460D01*
X8580658Y-14006460D02*
X8561610Y-14015984D01*
X8561610Y-14015984D02*
X8542563Y-14015984D01*
X8542563Y-14015984D02*
X8523515Y-14006460D01*
X8523515Y-14006460D02*
X8513991Y-13996936D01*
X8513991Y-13996936D02*
X8504467Y-13977888D01*
X8504467Y-13977888D02*
X8494944Y-13939793D01*
X8494944Y-13939793D02*
X8494944Y-13892174D01*
X8494944Y-13892174D02*
X8504467Y-13854079D01*
X8504467Y-13854079D02*
X8513991Y-13835031D01*
X8513991Y-13835031D02*
X8523515Y-13825508D01*
X8523515Y-13825508D02*
X8542563Y-13815984D01*
X8733039Y-13815984D02*
X8752086Y-13815984D01*
X8752086Y-13815984D02*
X8771134Y-13825508D01*
X8771134Y-13825508D02*
X8780658Y-13835031D01*
X8780658Y-13835031D02*
X8790182Y-13854079D01*
X8790182Y-13854079D02*
X8799705Y-13892174D01*
X8799705Y-13892174D02*
X8799705Y-13939793D01*
X8799705Y-13939793D02*
X8790182Y-13977888D01*
X8790182Y-13977888D02*
X8780658Y-13996936D01*
X8780658Y-13996936D02*
X8771134Y-14006460D01*
X8771134Y-14006460D02*
X8752086Y-14015984D01*
X8752086Y-14015984D02*
X8733039Y-14015984D01*
X8733039Y-14015984D02*
X8713991Y-14006460D01*
X8713991Y-14006460D02*
X8704467Y-13996936D01*
X8704467Y-13996936D02*
X8694944Y-13977888D01*
X8694944Y-13977888D02*
X8685420Y-13939793D01*
X8685420Y-13939793D02*
X8685420Y-13892174D01*
X8685420Y-13892174D02*
X8694944Y-13854079D01*
X8694944Y-13854079D02*
X8704467Y-13835031D01*
X8704467Y-13835031D02*
X8713991Y-13825508D01*
X8713991Y-13825508D02*
X8733039Y-13815984D01*
X8885420Y-14015984D02*
X8885420Y-13882650D01*
X8885420Y-13901698D02*
X8894944Y-13892174D01*
X8894944Y-13892174D02*
X8913991Y-13882650D01*
X8913991Y-13882650D02*
X8942563Y-13882650D01*
X8942563Y-13882650D02*
X8961610Y-13892174D01*
X8961610Y-13892174D02*
X8971134Y-13911222D01*
X8971134Y-13911222D02*
X8971134Y-14015984D01*
X8971134Y-13911222D02*
X8980658Y-13892174D01*
X8980658Y-13892174D02*
X8999705Y-13882650D01*
X8999705Y-13882650D02*
X9028277Y-13882650D01*
X9028277Y-13882650D02*
X9047325Y-13892174D01*
X9047325Y-13892174D02*
X9056848Y-13911222D01*
X9056848Y-13911222D02*
X9056848Y-14015984D01*
X9152086Y-14015984D02*
X9152086Y-13882650D01*
X9152086Y-13901698D02*
X9161610Y-13892174D01*
X9161610Y-13892174D02*
X9180658Y-13882650D01*
X9180658Y-13882650D02*
X9209229Y-13882650D01*
X9209229Y-13882650D02*
X9228277Y-13892174D01*
X9228277Y-13892174D02*
X9237801Y-13911222D01*
X9237801Y-13911222D02*
X9237801Y-14015984D01*
X9237801Y-13911222D02*
X9247325Y-13892174D01*
X9247325Y-13892174D02*
X9266372Y-13882650D01*
X9266372Y-13882650D02*
X9294944Y-13882650D01*
X9294944Y-13882650D02*
X9313991Y-13892174D01*
X9313991Y-13892174D02*
X9323515Y-13911222D01*
X9323515Y-13911222D02*
X9323515Y-14015984D01*
X9713991Y-13806460D02*
X9542563Y-14063603D01*
X9971134Y-13815984D02*
X9990182Y-13815984D01*
X9990182Y-13815984D02*
X10009229Y-13825508D01*
X10009229Y-13825508D02*
X10018753Y-13835031D01*
X10018753Y-13835031D02*
X10028277Y-13854079D01*
X10028277Y-13854079D02*
X10037801Y-13892174D01*
X10037801Y-13892174D02*
X10037801Y-13939793D01*
X10037801Y-13939793D02*
X10028277Y-13977888D01*
X10028277Y-13977888D02*
X10018753Y-13996936D01*
X10018753Y-13996936D02*
X10009229Y-14006460D01*
X10009229Y-14006460D02*
X9990182Y-14015984D01*
X9990182Y-14015984D02*
X9971134Y-14015984D01*
X9971134Y-14015984D02*
X9952087Y-14006460D01*
X9952087Y-14006460D02*
X9942563Y-13996936D01*
X9942563Y-13996936D02*
X9933039Y-13977888D01*
X9933039Y-13977888D02*
X9923515Y-13939793D01*
X9923515Y-13939793D02*
X9923515Y-13892174D01*
X9923515Y-13892174D02*
X9933039Y-13854079D01*
X9933039Y-13854079D02*
X9942563Y-13835031D01*
X9942563Y-13835031D02*
X9952087Y-13825508D01*
X9952087Y-13825508D02*
X9971134Y-13815984D01*
X10123515Y-13996936D02*
X10133039Y-14006460D01*
X10133039Y-14006460D02*
X10123515Y-14015984D01*
X10123515Y-14015984D02*
X10113991Y-14006460D01*
X10113991Y-14006460D02*
X10123515Y-13996936D01*
X10123515Y-13996936D02*
X10123515Y-14015984D01*
X10256848Y-13815984D02*
X10275896Y-13815984D01*
X10275896Y-13815984D02*
X10294944Y-13825508D01*
X10294944Y-13825508D02*
X10304468Y-13835031D01*
X10304468Y-13835031D02*
X10313991Y-13854079D01*
X10313991Y-13854079D02*
X10323515Y-13892174D01*
X10323515Y-13892174D02*
X10323515Y-13939793D01*
X10323515Y-13939793D02*
X10313991Y-13977888D01*
X10313991Y-13977888D02*
X10304468Y-13996936D01*
X10304468Y-13996936D02*
X10294944Y-14006460D01*
X10294944Y-14006460D02*
X10275896Y-14015984D01*
X10275896Y-14015984D02*
X10256848Y-14015984D01*
X10256848Y-14015984D02*
X10237801Y-14006460D01*
X10237801Y-14006460D02*
X10228277Y-13996936D01*
X10228277Y-13996936D02*
X10218753Y-13977888D01*
X10218753Y-13977888D02*
X10209229Y-13939793D01*
X10209229Y-13939793D02*
X10209229Y-13892174D01*
X10209229Y-13892174D02*
X10218753Y-13854079D01*
X10218753Y-13854079D02*
X10228277Y-13835031D01*
X10228277Y-13835031D02*
X10237801Y-13825508D01*
X10237801Y-13825508D02*
X10256848Y-13815984D01*
X10390182Y-13815984D02*
X10513991Y-13815984D01*
X10513991Y-13815984D02*
X10447325Y-13892174D01*
X10447325Y-13892174D02*
X10475896Y-13892174D01*
X10475896Y-13892174D02*
X10494944Y-13901698D01*
X10494944Y-13901698D02*
X10504468Y-13911222D01*
X10504468Y-13911222D02*
X10513991Y-13930269D01*
X10513991Y-13930269D02*
X10513991Y-13977888D01*
X10513991Y-13977888D02*
X10504468Y-13996936D01*
X10504468Y-13996936D02*
X10494944Y-14006460D01*
X10494944Y-14006460D02*
X10475896Y-14015984D01*
X10475896Y-14015984D02*
X10418753Y-14015984D01*
X10418753Y-14015984D02*
X10399706Y-14006460D01*
X10399706Y-14006460D02*
X10390182Y-13996936D01*
X10609229Y-14015984D02*
X10647325Y-14015984D01*
X10647325Y-14015984D02*
X10666372Y-14006460D01*
X10666372Y-14006460D02*
X10675896Y-13996936D01*
X10675896Y-13996936D02*
X10694944Y-13968365D01*
X10694944Y-13968365D02*
X10704468Y-13930269D01*
X10704468Y-13930269D02*
X10704468Y-13854079D01*
X10704468Y-13854079D02*
X10694944Y-13835031D01*
X10694944Y-13835031D02*
X10685420Y-13825508D01*
X10685420Y-13825508D02*
X10666372Y-13815984D01*
X10666372Y-13815984D02*
X10628277Y-13815984D01*
X10628277Y-13815984D02*
X10609229Y-13825508D01*
X10609229Y-13825508D02*
X10599706Y-13835031D01*
X10599706Y-13835031D02*
X10590182Y-13854079D01*
X10590182Y-13854079D02*
X10590182Y-13901698D01*
X10590182Y-13901698D02*
X10599706Y-13920746D01*
X10599706Y-13920746D02*
X10609229Y-13930269D01*
X10609229Y-13930269D02*
X10628277Y-13939793D01*
X10628277Y-13939793D02*
X10666372Y-13939793D01*
X10666372Y-13939793D02*
X10685420Y-13930269D01*
X10685420Y-13930269D02*
X10694944Y-13920746D01*
X10694944Y-13920746D02*
X10704468Y-13901698D01*
X10875896Y-13882650D02*
X10875896Y-14015984D01*
X10828277Y-13806460D02*
X10780658Y-13949317D01*
X10780658Y-13949317D02*
X10904468Y-13949317D01*
X10971134Y-13815984D02*
X10971134Y-13854079D01*
X11047325Y-13815984D02*
X11047325Y-13854079D01*
X11342563Y-14092174D02*
X11333039Y-14082650D01*
X11333039Y-14082650D02*
X11313991Y-14054079D01*
X11313991Y-14054079D02*
X11304468Y-14035031D01*
X11304468Y-14035031D02*
X11294944Y-14006460D01*
X11294944Y-14006460D02*
X11285420Y-13958841D01*
X11285420Y-13958841D02*
X11285420Y-13920746D01*
X11285420Y-13920746D02*
X11294944Y-13873127D01*
X11294944Y-13873127D02*
X11304468Y-13844555D01*
X11304468Y-13844555D02*
X11313991Y-13825508D01*
X11313991Y-13825508D02*
X11333039Y-13796936D01*
X11333039Y-13796936D02*
X11342563Y-13787412D01*
X11409229Y-13835031D02*
X11418753Y-13825508D01*
X11418753Y-13825508D02*
X11437801Y-13815984D01*
X11437801Y-13815984D02*
X11485420Y-13815984D01*
X11485420Y-13815984D02*
X11504468Y-13825508D01*
X11504468Y-13825508D02*
X11513991Y-13835031D01*
X11513991Y-13835031D02*
X11523515Y-13854079D01*
X11523515Y-13854079D02*
X11523515Y-13873127D01*
X11523515Y-13873127D02*
X11513991Y-13901698D01*
X11513991Y-13901698D02*
X11399706Y-14015984D01*
X11399706Y-14015984D02*
X11523515Y-14015984D01*
X11590182Y-13815984D02*
X11723515Y-13815984D01*
X11723515Y-13815984D02*
X11637801Y-14015984D01*
X11952087Y-14015984D02*
X11952087Y-13815984D01*
X12037801Y-14015984D02*
X12037801Y-13911222D01*
X12037801Y-13911222D02*
X12028277Y-13892174D01*
X12028277Y-13892174D02*
X12009230Y-13882650D01*
X12009230Y-13882650D02*
X11980658Y-13882650D01*
X11980658Y-13882650D02*
X11961610Y-13892174D01*
X11961610Y-13892174D02*
X11952087Y-13901698D01*
X12161610Y-14015984D02*
X12142563Y-14006460D01*
X12142563Y-14006460D02*
X12133039Y-13996936D01*
X12133039Y-13996936D02*
X12123515Y-13977888D01*
X12123515Y-13977888D02*
X12123515Y-13920746D01*
X12123515Y-13920746D02*
X12133039Y-13901698D01*
X12133039Y-13901698D02*
X12142563Y-13892174D01*
X12142563Y-13892174D02*
X12161610Y-13882650D01*
X12161610Y-13882650D02*
X12190182Y-13882650D01*
X12190182Y-13882650D02*
X12209230Y-13892174D01*
X12209230Y-13892174D02*
X12218753Y-13901698D01*
X12218753Y-13901698D02*
X12228277Y-13920746D01*
X12228277Y-13920746D02*
X12228277Y-13977888D01*
X12228277Y-13977888D02*
X12218753Y-13996936D01*
X12218753Y-13996936D02*
X12209230Y-14006460D01*
X12209230Y-14006460D02*
X12190182Y-14015984D01*
X12190182Y-14015984D02*
X12161610Y-14015984D01*
X12342563Y-14015984D02*
X12323515Y-14006460D01*
X12323515Y-14006460D02*
X12313991Y-13987412D01*
X12313991Y-13987412D02*
X12313991Y-13815984D01*
X12494944Y-14006460D02*
X12475896Y-14015984D01*
X12475896Y-14015984D02*
X12437801Y-14015984D01*
X12437801Y-14015984D02*
X12418753Y-14006460D01*
X12418753Y-14006460D02*
X12409230Y-13987412D01*
X12409230Y-13987412D02*
X12409230Y-13911222D01*
X12409230Y-13911222D02*
X12418753Y-13892174D01*
X12418753Y-13892174D02*
X12437801Y-13882650D01*
X12437801Y-13882650D02*
X12475896Y-13882650D01*
X12475896Y-13882650D02*
X12494944Y-13892174D01*
X12494944Y-13892174D02*
X12504468Y-13911222D01*
X12504468Y-13911222D02*
X12504468Y-13930269D01*
X12504468Y-13930269D02*
X12409230Y-13949317D01*
X12580658Y-14006460D02*
X12599706Y-14015984D01*
X12599706Y-14015984D02*
X12637801Y-14015984D01*
X12637801Y-14015984D02*
X12656849Y-14006460D01*
X12656849Y-14006460D02*
X12666372Y-13987412D01*
X12666372Y-13987412D02*
X12666372Y-13977888D01*
X12666372Y-13977888D02*
X12656849Y-13958841D01*
X12656849Y-13958841D02*
X12637801Y-13949317D01*
X12637801Y-13949317D02*
X12609230Y-13949317D01*
X12609230Y-13949317D02*
X12590182Y-13939793D01*
X12590182Y-13939793D02*
X12580658Y-13920746D01*
X12580658Y-13920746D02*
X12580658Y-13911222D01*
X12580658Y-13911222D02*
X12590182Y-13892174D01*
X12590182Y-13892174D02*
X12609230Y-13882650D01*
X12609230Y-13882650D02*
X12637801Y-13882650D01*
X12637801Y-13882650D02*
X12656849Y-13892174D01*
X12904468Y-13939793D02*
X13056849Y-13939793D01*
X12980658Y-14015984D02*
X12980658Y-13863603D01*
X13285420Y-13815984D02*
X13409230Y-13815984D01*
X13409230Y-13815984D02*
X13342563Y-13892174D01*
X13342563Y-13892174D02*
X13371134Y-13892174D01*
X13371134Y-13892174D02*
X13390182Y-13901698D01*
X13390182Y-13901698D02*
X13399706Y-13911222D01*
X13399706Y-13911222D02*
X13409230Y-13930269D01*
X13409230Y-13930269D02*
X13409230Y-13977888D01*
X13409230Y-13977888D02*
X13399706Y-13996936D01*
X13399706Y-13996936D02*
X13390182Y-14006460D01*
X13390182Y-14006460D02*
X13371134Y-14015984D01*
X13371134Y-14015984D02*
X13313992Y-14015984D01*
X13313992Y-14015984D02*
X13294944Y-14006460D01*
X13294944Y-14006460D02*
X13285420Y-13996936D01*
X13637801Y-14006460D02*
X13656849Y-14015984D01*
X13656849Y-14015984D02*
X13694944Y-14015984D01*
X13694944Y-14015984D02*
X13713992Y-14006460D01*
X13713992Y-14006460D02*
X13723515Y-13987412D01*
X13723515Y-13987412D02*
X13723515Y-13977888D01*
X13723515Y-13977888D02*
X13713992Y-13958841D01*
X13713992Y-13958841D02*
X13694944Y-13949317D01*
X13694944Y-13949317D02*
X13666373Y-13949317D01*
X13666373Y-13949317D02*
X13647325Y-13939793D01*
X13647325Y-13939793D02*
X13637801Y-13920746D01*
X13637801Y-13920746D02*
X13637801Y-13911222D01*
X13637801Y-13911222D02*
X13647325Y-13892174D01*
X13647325Y-13892174D02*
X13666373Y-13882650D01*
X13666373Y-13882650D02*
X13694944Y-13882650D01*
X13694944Y-13882650D02*
X13713992Y-13892174D01*
X13837801Y-14015984D02*
X13818754Y-14006460D01*
X13818754Y-14006460D02*
X13809230Y-13987412D01*
X13809230Y-13987412D02*
X13809230Y-13815984D01*
X13942563Y-14015984D02*
X13923515Y-14006460D01*
X13923515Y-14006460D02*
X13913992Y-13996936D01*
X13913992Y-13996936D02*
X13904468Y-13977888D01*
X13904468Y-13977888D02*
X13904468Y-13920746D01*
X13904468Y-13920746D02*
X13913992Y-13901698D01*
X13913992Y-13901698D02*
X13923515Y-13892174D01*
X13923515Y-13892174D02*
X13942563Y-13882650D01*
X13942563Y-13882650D02*
X13971135Y-13882650D01*
X13971135Y-13882650D02*
X13990182Y-13892174D01*
X13990182Y-13892174D02*
X13999706Y-13901698D01*
X13999706Y-13901698D02*
X14009230Y-13920746D01*
X14009230Y-13920746D02*
X14009230Y-13977888D01*
X14009230Y-13977888D02*
X13999706Y-13996936D01*
X13999706Y-13996936D02*
X13990182Y-14006460D01*
X13990182Y-14006460D02*
X13971135Y-14015984D01*
X13971135Y-14015984D02*
X13942563Y-14015984D01*
X14066373Y-13882650D02*
X14142563Y-13882650D01*
X14094944Y-13815984D02*
X14094944Y-13987412D01*
X14094944Y-13987412D02*
X14104468Y-14006460D01*
X14104468Y-14006460D02*
X14123515Y-14015984D01*
X14123515Y-14015984D02*
X14142563Y-14015984D01*
X14199706Y-14006460D02*
X14218754Y-14015984D01*
X14218754Y-14015984D02*
X14256849Y-14015984D01*
X14256849Y-14015984D02*
X14275896Y-14006460D01*
X14275896Y-14006460D02*
X14285420Y-13987412D01*
X14285420Y-13987412D02*
X14285420Y-13977888D01*
X14285420Y-13977888D02*
X14275896Y-13958841D01*
X14275896Y-13958841D02*
X14256849Y-13949317D01*
X14256849Y-13949317D02*
X14228277Y-13949317D01*
X14228277Y-13949317D02*
X14209230Y-13939793D01*
X14209230Y-13939793D02*
X14199706Y-13920746D01*
X14199706Y-13920746D02*
X14199706Y-13911222D01*
X14199706Y-13911222D02*
X14209230Y-13892174D01*
X14209230Y-13892174D02*
X14228277Y-13882650D01*
X14228277Y-13882650D02*
X14256849Y-13882650D01*
X14256849Y-13882650D02*
X14275896Y-13892174D01*
X14352087Y-14092174D02*
X14361611Y-14082650D01*
X14361611Y-14082650D02*
X14380658Y-14054079D01*
X14380658Y-14054079D02*
X14390182Y-14035031D01*
X14390182Y-14035031D02*
X14399706Y-14006460D01*
X14399706Y-14006460D02*
X14409230Y-13958841D01*
X14409230Y-13958841D02*
X14409230Y-13920746D01*
X14409230Y-13920746D02*
X14399706Y-13873127D01*
X14399706Y-13873127D02*
X14390182Y-13844555D01*
X14390182Y-13844555D02*
X14380658Y-13825508D01*
X14380658Y-13825508D02*
X14361611Y-13796936D01*
X14361611Y-13796936D02*
X14352087Y-13787412D01*
X7667500Y-14288500D02*
X7767500Y-14188500D01*
X7667500Y-14088500D01*
X7567500Y-14188500D01*
X7667500Y-14288500D01*
X8113991Y-14146650D02*
X8113991Y-14279984D01*
X8066372Y-14070460D02*
X8018753Y-14213317D01*
X8018753Y-14213317D02*
X8142562Y-14213317D01*
X8218753Y-14260936D02*
X8228277Y-14270460D01*
X8228277Y-14270460D02*
X8218753Y-14279984D01*
X8218753Y-14279984D02*
X8209229Y-14270460D01*
X8209229Y-14270460D02*
X8218753Y-14260936D01*
X8218753Y-14260936D02*
X8218753Y-14279984D01*
X8304467Y-14099031D02*
X8313991Y-14089508D01*
X8313991Y-14089508D02*
X8333039Y-14079984D01*
X8333039Y-14079984D02*
X8380658Y-14079984D01*
X8380658Y-14079984D02*
X8399705Y-14089508D01*
X8399705Y-14089508D02*
X8409229Y-14099031D01*
X8409229Y-14099031D02*
X8418753Y-14118079D01*
X8418753Y-14118079D02*
X8418753Y-14137127D01*
X8418753Y-14137127D02*
X8409229Y-14165698D01*
X8409229Y-14165698D02*
X8294943Y-14279984D01*
X8294943Y-14279984D02*
X8418753Y-14279984D01*
X8542563Y-14079984D02*
X8561610Y-14079984D01*
X8561610Y-14079984D02*
X8580658Y-14089508D01*
X8580658Y-14089508D02*
X8590182Y-14099031D01*
X8590182Y-14099031D02*
X8599705Y-14118079D01*
X8599705Y-14118079D02*
X8609229Y-14156174D01*
X8609229Y-14156174D02*
X8609229Y-14203793D01*
X8609229Y-14203793D02*
X8599705Y-14241888D01*
X8599705Y-14241888D02*
X8590182Y-14260936D01*
X8590182Y-14260936D02*
X8580658Y-14270460D01*
X8580658Y-14270460D02*
X8561610Y-14279984D01*
X8561610Y-14279984D02*
X8542563Y-14279984D01*
X8542563Y-14279984D02*
X8523515Y-14270460D01*
X8523515Y-14270460D02*
X8513991Y-14260936D01*
X8513991Y-14260936D02*
X8504467Y-14241888D01*
X8504467Y-14241888D02*
X8494944Y-14203793D01*
X8494944Y-14203793D02*
X8494944Y-14156174D01*
X8494944Y-14156174D02*
X8504467Y-14118079D01*
X8504467Y-14118079D02*
X8513991Y-14099031D01*
X8513991Y-14099031D02*
X8523515Y-14089508D01*
X8523515Y-14089508D02*
X8542563Y-14079984D01*
X8733039Y-14079984D02*
X8752086Y-14079984D01*
X8752086Y-14079984D02*
X8771134Y-14089508D01*
X8771134Y-14089508D02*
X8780658Y-14099031D01*
X8780658Y-14099031D02*
X8790182Y-14118079D01*
X8790182Y-14118079D02*
X8799705Y-14156174D01*
X8799705Y-14156174D02*
X8799705Y-14203793D01*
X8799705Y-14203793D02*
X8790182Y-14241888D01*
X8790182Y-14241888D02*
X8780658Y-14260936D01*
X8780658Y-14260936D02*
X8771134Y-14270460D01*
X8771134Y-14270460D02*
X8752086Y-14279984D01*
X8752086Y-14279984D02*
X8733039Y-14279984D01*
X8733039Y-14279984D02*
X8713991Y-14270460D01*
X8713991Y-14270460D02*
X8704467Y-14260936D01*
X8704467Y-14260936D02*
X8694944Y-14241888D01*
X8694944Y-14241888D02*
X8685420Y-14203793D01*
X8685420Y-14203793D02*
X8685420Y-14156174D01*
X8685420Y-14156174D02*
X8694944Y-14118079D01*
X8694944Y-14118079D02*
X8704467Y-14099031D01*
X8704467Y-14099031D02*
X8713991Y-14089508D01*
X8713991Y-14089508D02*
X8733039Y-14079984D01*
X8885420Y-14279984D02*
X8885420Y-14146650D01*
X8885420Y-14165698D02*
X8894944Y-14156174D01*
X8894944Y-14156174D02*
X8913991Y-14146650D01*
X8913991Y-14146650D02*
X8942563Y-14146650D01*
X8942563Y-14146650D02*
X8961610Y-14156174D01*
X8961610Y-14156174D02*
X8971134Y-14175222D01*
X8971134Y-14175222D02*
X8971134Y-14279984D01*
X8971134Y-14175222D02*
X8980658Y-14156174D01*
X8980658Y-14156174D02*
X8999705Y-14146650D01*
X8999705Y-14146650D02*
X9028277Y-14146650D01*
X9028277Y-14146650D02*
X9047325Y-14156174D01*
X9047325Y-14156174D02*
X9056848Y-14175222D01*
X9056848Y-14175222D02*
X9056848Y-14279984D01*
X9152086Y-14279984D02*
X9152086Y-14146650D01*
X9152086Y-14165698D02*
X9161610Y-14156174D01*
X9161610Y-14156174D02*
X9180658Y-14146650D01*
X9180658Y-14146650D02*
X9209229Y-14146650D01*
X9209229Y-14146650D02*
X9228277Y-14156174D01*
X9228277Y-14156174D02*
X9237801Y-14175222D01*
X9237801Y-14175222D02*
X9237801Y-14279984D01*
X9237801Y-14175222D02*
X9247325Y-14156174D01*
X9247325Y-14156174D02*
X9266372Y-14146650D01*
X9266372Y-14146650D02*
X9294944Y-14146650D01*
X9294944Y-14146650D02*
X9313991Y-14156174D01*
X9313991Y-14156174D02*
X9323515Y-14175222D01*
X9323515Y-14175222D02*
X9323515Y-14279984D01*
X9713991Y-14070460D02*
X9542563Y-14327603D01*
X9971134Y-14079984D02*
X9990182Y-14079984D01*
X9990182Y-14079984D02*
X10009229Y-14089508D01*
X10009229Y-14089508D02*
X10018753Y-14099031D01*
X10018753Y-14099031D02*
X10028277Y-14118079D01*
X10028277Y-14118079D02*
X10037801Y-14156174D01*
X10037801Y-14156174D02*
X10037801Y-14203793D01*
X10037801Y-14203793D02*
X10028277Y-14241888D01*
X10028277Y-14241888D02*
X10018753Y-14260936D01*
X10018753Y-14260936D02*
X10009229Y-14270460D01*
X10009229Y-14270460D02*
X9990182Y-14279984D01*
X9990182Y-14279984D02*
X9971134Y-14279984D01*
X9971134Y-14279984D02*
X9952087Y-14270460D01*
X9952087Y-14270460D02*
X9942563Y-14260936D01*
X9942563Y-14260936D02*
X9933039Y-14241888D01*
X9933039Y-14241888D02*
X9923515Y-14203793D01*
X9923515Y-14203793D02*
X9923515Y-14156174D01*
X9923515Y-14156174D02*
X9933039Y-14118079D01*
X9933039Y-14118079D02*
X9942563Y-14099031D01*
X9942563Y-14099031D02*
X9952087Y-14089508D01*
X9952087Y-14089508D02*
X9971134Y-14079984D01*
X10123515Y-14260936D02*
X10133039Y-14270460D01*
X10133039Y-14270460D02*
X10123515Y-14279984D01*
X10123515Y-14279984D02*
X10113991Y-14270460D01*
X10113991Y-14270460D02*
X10123515Y-14260936D01*
X10123515Y-14260936D02*
X10123515Y-14279984D01*
X10323515Y-14279984D02*
X10209229Y-14279984D01*
X10266372Y-14279984D02*
X10266372Y-14079984D01*
X10266372Y-14079984D02*
X10247325Y-14108555D01*
X10247325Y-14108555D02*
X10228277Y-14127603D01*
X10228277Y-14127603D02*
X10209229Y-14137127D01*
X10494944Y-14079984D02*
X10456848Y-14079984D01*
X10456848Y-14079984D02*
X10437801Y-14089508D01*
X10437801Y-14089508D02*
X10428277Y-14099031D01*
X10428277Y-14099031D02*
X10409229Y-14127603D01*
X10409229Y-14127603D02*
X10399706Y-14165698D01*
X10399706Y-14165698D02*
X10399706Y-14241888D01*
X10399706Y-14241888D02*
X10409229Y-14260936D01*
X10409229Y-14260936D02*
X10418753Y-14270460D01*
X10418753Y-14270460D02*
X10437801Y-14279984D01*
X10437801Y-14279984D02*
X10475896Y-14279984D01*
X10475896Y-14279984D02*
X10494944Y-14270460D01*
X10494944Y-14270460D02*
X10504468Y-14260936D01*
X10504468Y-14260936D02*
X10513991Y-14241888D01*
X10513991Y-14241888D02*
X10513991Y-14194269D01*
X10513991Y-14194269D02*
X10504468Y-14175222D01*
X10504468Y-14175222D02*
X10494944Y-14165698D01*
X10494944Y-14165698D02*
X10475896Y-14156174D01*
X10475896Y-14156174D02*
X10437801Y-14156174D01*
X10437801Y-14156174D02*
X10418753Y-14165698D01*
X10418753Y-14165698D02*
X10409229Y-14175222D01*
X10409229Y-14175222D02*
X10399706Y-14194269D01*
X10694944Y-14079984D02*
X10599706Y-14079984D01*
X10599706Y-14079984D02*
X10590182Y-14175222D01*
X10590182Y-14175222D02*
X10599706Y-14165698D01*
X10599706Y-14165698D02*
X10618753Y-14156174D01*
X10618753Y-14156174D02*
X10666372Y-14156174D01*
X10666372Y-14156174D02*
X10685420Y-14165698D01*
X10685420Y-14165698D02*
X10694944Y-14175222D01*
X10694944Y-14175222D02*
X10704468Y-14194269D01*
X10704468Y-14194269D02*
X10704468Y-14241888D01*
X10704468Y-14241888D02*
X10694944Y-14260936D01*
X10694944Y-14260936D02*
X10685420Y-14270460D01*
X10685420Y-14270460D02*
X10666372Y-14279984D01*
X10666372Y-14279984D02*
X10618753Y-14279984D01*
X10618753Y-14279984D02*
X10599706Y-14270460D01*
X10599706Y-14270460D02*
X10590182Y-14260936D01*
X10875896Y-14146650D02*
X10875896Y-14279984D01*
X10828277Y-14070460D02*
X10780658Y-14213317D01*
X10780658Y-14213317D02*
X10904468Y-14213317D01*
X10971134Y-14079984D02*
X10971134Y-14118079D01*
X11047325Y-14079984D02*
X11047325Y-14118079D01*
X11342563Y-14356174D02*
X11333039Y-14346650D01*
X11333039Y-14346650D02*
X11313991Y-14318079D01*
X11313991Y-14318079D02*
X11304468Y-14299031D01*
X11304468Y-14299031D02*
X11294944Y-14270460D01*
X11294944Y-14270460D02*
X11285420Y-14222841D01*
X11285420Y-14222841D02*
X11285420Y-14184746D01*
X11285420Y-14184746D02*
X11294944Y-14137127D01*
X11294944Y-14137127D02*
X11304468Y-14108555D01*
X11304468Y-14108555D02*
X11313991Y-14089508D01*
X11313991Y-14089508D02*
X11333039Y-14060936D01*
X11333039Y-14060936D02*
X11342563Y-14051412D01*
X11409229Y-14099031D02*
X11418753Y-14089508D01*
X11418753Y-14089508D02*
X11437801Y-14079984D01*
X11437801Y-14079984D02*
X11485420Y-14079984D01*
X11485420Y-14079984D02*
X11504468Y-14089508D01*
X11504468Y-14089508D02*
X11513991Y-14099031D01*
X11513991Y-14099031D02*
X11523515Y-14118079D01*
X11523515Y-14118079D02*
X11523515Y-14137127D01*
X11523515Y-14137127D02*
X11513991Y-14165698D01*
X11513991Y-14165698D02*
X11399706Y-14279984D01*
X11399706Y-14279984D02*
X11523515Y-14279984D01*
X11761610Y-14279984D02*
X11761610Y-14079984D01*
X11847325Y-14279984D02*
X11847325Y-14175222D01*
X11847325Y-14175222D02*
X11837801Y-14156174D01*
X11837801Y-14156174D02*
X11818753Y-14146650D01*
X11818753Y-14146650D02*
X11790182Y-14146650D01*
X11790182Y-14146650D02*
X11771134Y-14156174D01*
X11771134Y-14156174D02*
X11761610Y-14165698D01*
X11971134Y-14279984D02*
X11952087Y-14270460D01*
X11952087Y-14270460D02*
X11942563Y-14260936D01*
X11942563Y-14260936D02*
X11933039Y-14241888D01*
X11933039Y-14241888D02*
X11933039Y-14184746D01*
X11933039Y-14184746D02*
X11942563Y-14165698D01*
X11942563Y-14165698D02*
X11952087Y-14156174D01*
X11952087Y-14156174D02*
X11971134Y-14146650D01*
X11971134Y-14146650D02*
X11999706Y-14146650D01*
X11999706Y-14146650D02*
X12018753Y-14156174D01*
X12018753Y-14156174D02*
X12028277Y-14165698D01*
X12028277Y-14165698D02*
X12037801Y-14184746D01*
X12037801Y-14184746D02*
X12037801Y-14241888D01*
X12037801Y-14241888D02*
X12028277Y-14260936D01*
X12028277Y-14260936D02*
X12018753Y-14270460D01*
X12018753Y-14270460D02*
X11999706Y-14279984D01*
X11999706Y-14279984D02*
X11971134Y-14279984D01*
X12152087Y-14279984D02*
X12133039Y-14270460D01*
X12133039Y-14270460D02*
X12123515Y-14251412D01*
X12123515Y-14251412D02*
X12123515Y-14079984D01*
X12304468Y-14270460D02*
X12285420Y-14279984D01*
X12285420Y-14279984D02*
X12247325Y-14279984D01*
X12247325Y-14279984D02*
X12228277Y-14270460D01*
X12228277Y-14270460D02*
X12218753Y-14251412D01*
X12218753Y-14251412D02*
X12218753Y-14175222D01*
X12218753Y-14175222D02*
X12228277Y-14156174D01*
X12228277Y-14156174D02*
X12247325Y-14146650D01*
X12247325Y-14146650D02*
X12285420Y-14146650D01*
X12285420Y-14146650D02*
X12304468Y-14156174D01*
X12304468Y-14156174D02*
X12313991Y-14175222D01*
X12313991Y-14175222D02*
X12313991Y-14194269D01*
X12313991Y-14194269D02*
X12218753Y-14213317D01*
X12390182Y-14270460D02*
X12409230Y-14279984D01*
X12409230Y-14279984D02*
X12447325Y-14279984D01*
X12447325Y-14279984D02*
X12466372Y-14270460D01*
X12466372Y-14270460D02*
X12475896Y-14251412D01*
X12475896Y-14251412D02*
X12475896Y-14241888D01*
X12475896Y-14241888D02*
X12466372Y-14222841D01*
X12466372Y-14222841D02*
X12447325Y-14213317D01*
X12447325Y-14213317D02*
X12418753Y-14213317D01*
X12418753Y-14213317D02*
X12399706Y-14203793D01*
X12399706Y-14203793D02*
X12390182Y-14184746D01*
X12390182Y-14184746D02*
X12390182Y-14175222D01*
X12390182Y-14175222D02*
X12399706Y-14156174D01*
X12399706Y-14156174D02*
X12418753Y-14146650D01*
X12418753Y-14146650D02*
X12447325Y-14146650D01*
X12447325Y-14146650D02*
X12466372Y-14156174D01*
X12542563Y-14356174D02*
X12552087Y-14346650D01*
X12552087Y-14346650D02*
X12571134Y-14318079D01*
X12571134Y-14318079D02*
X12580658Y-14299031D01*
X12580658Y-14299031D02*
X12590182Y-14270460D01*
X12590182Y-14270460D02*
X12599706Y-14222841D01*
X12599706Y-14222841D02*
X12599706Y-14184746D01*
X12599706Y-14184746D02*
X12590182Y-14137127D01*
X12590182Y-14137127D02*
X12580658Y-14108555D01*
X12580658Y-14108555D02*
X12571134Y-14089508D01*
X12571134Y-14089508D02*
X12552087Y-14060936D01*
X12552087Y-14060936D02*
X12542563Y-14051412D01*
X7567500Y-14408500D02*
X7767500Y-14608500D01*
X7767500Y-14408500D02*
X7567500Y-14608500D01*
X7767500Y-14508500D02*
G75*
G02*
X7567500Y-14508500I-100000J0D01*
G01*
X7567500Y-14508500D02*
G75*
G02*
X7767500Y-14508500I100000J0D01*
G01*
X8113991Y-14466650D02*
X8113991Y-14599984D01*
X8066372Y-14390460D02*
X8018753Y-14533317D01*
X8018753Y-14533317D02*
X8142562Y-14533317D01*
X8218753Y-14580936D02*
X8228277Y-14590460D01*
X8228277Y-14590460D02*
X8218753Y-14599984D01*
X8218753Y-14599984D02*
X8209229Y-14590460D01*
X8209229Y-14590460D02*
X8218753Y-14580936D01*
X8218753Y-14580936D02*
X8218753Y-14599984D01*
X8294943Y-14399984D02*
X8418753Y-14399984D01*
X8418753Y-14399984D02*
X8352086Y-14476174D01*
X8352086Y-14476174D02*
X8380658Y-14476174D01*
X8380658Y-14476174D02*
X8399705Y-14485698D01*
X8399705Y-14485698D02*
X8409229Y-14495222D01*
X8409229Y-14495222D02*
X8418753Y-14514269D01*
X8418753Y-14514269D02*
X8418753Y-14561888D01*
X8418753Y-14561888D02*
X8409229Y-14580936D01*
X8409229Y-14580936D02*
X8399705Y-14590460D01*
X8399705Y-14590460D02*
X8380658Y-14599984D01*
X8380658Y-14599984D02*
X8323515Y-14599984D01*
X8323515Y-14599984D02*
X8304467Y-14590460D01*
X8304467Y-14590460D02*
X8294943Y-14580936D01*
X8542563Y-14399984D02*
X8561610Y-14399984D01*
X8561610Y-14399984D02*
X8580658Y-14409508D01*
X8580658Y-14409508D02*
X8590182Y-14419031D01*
X8590182Y-14419031D02*
X8599705Y-14438079D01*
X8599705Y-14438079D02*
X8609229Y-14476174D01*
X8609229Y-14476174D02*
X8609229Y-14523793D01*
X8609229Y-14523793D02*
X8599705Y-14561888D01*
X8599705Y-14561888D02*
X8590182Y-14580936D01*
X8590182Y-14580936D02*
X8580658Y-14590460D01*
X8580658Y-14590460D02*
X8561610Y-14599984D01*
X8561610Y-14599984D02*
X8542563Y-14599984D01*
X8542563Y-14599984D02*
X8523515Y-14590460D01*
X8523515Y-14590460D02*
X8513991Y-14580936D01*
X8513991Y-14580936D02*
X8504467Y-14561888D01*
X8504467Y-14561888D02*
X8494944Y-14523793D01*
X8494944Y-14523793D02*
X8494944Y-14476174D01*
X8494944Y-14476174D02*
X8504467Y-14438079D01*
X8504467Y-14438079D02*
X8513991Y-14419031D01*
X8513991Y-14419031D02*
X8523515Y-14409508D01*
X8523515Y-14409508D02*
X8542563Y-14399984D01*
X8733039Y-14399984D02*
X8752086Y-14399984D01*
X8752086Y-14399984D02*
X8771134Y-14409508D01*
X8771134Y-14409508D02*
X8780658Y-14419031D01*
X8780658Y-14419031D02*
X8790182Y-14438079D01*
X8790182Y-14438079D02*
X8799705Y-14476174D01*
X8799705Y-14476174D02*
X8799705Y-14523793D01*
X8799705Y-14523793D02*
X8790182Y-14561888D01*
X8790182Y-14561888D02*
X8780658Y-14580936D01*
X8780658Y-14580936D02*
X8771134Y-14590460D01*
X8771134Y-14590460D02*
X8752086Y-14599984D01*
X8752086Y-14599984D02*
X8733039Y-14599984D01*
X8733039Y-14599984D02*
X8713991Y-14590460D01*
X8713991Y-14590460D02*
X8704467Y-14580936D01*
X8704467Y-14580936D02*
X8694944Y-14561888D01*
X8694944Y-14561888D02*
X8685420Y-14523793D01*
X8685420Y-14523793D02*
X8685420Y-14476174D01*
X8685420Y-14476174D02*
X8694944Y-14438079D01*
X8694944Y-14438079D02*
X8704467Y-14419031D01*
X8704467Y-14419031D02*
X8713991Y-14409508D01*
X8713991Y-14409508D02*
X8733039Y-14399984D01*
X8885420Y-14599984D02*
X8885420Y-14466650D01*
X8885420Y-14485698D02*
X8894944Y-14476174D01*
X8894944Y-14476174D02*
X8913991Y-14466650D01*
X8913991Y-14466650D02*
X8942563Y-14466650D01*
X8942563Y-14466650D02*
X8961610Y-14476174D01*
X8961610Y-14476174D02*
X8971134Y-14495222D01*
X8971134Y-14495222D02*
X8971134Y-14599984D01*
X8971134Y-14495222D02*
X8980658Y-14476174D01*
X8980658Y-14476174D02*
X8999705Y-14466650D01*
X8999705Y-14466650D02*
X9028277Y-14466650D01*
X9028277Y-14466650D02*
X9047325Y-14476174D01*
X9047325Y-14476174D02*
X9056848Y-14495222D01*
X9056848Y-14495222D02*
X9056848Y-14599984D01*
X9152086Y-14599984D02*
X9152086Y-14466650D01*
X9152086Y-14485698D02*
X9161610Y-14476174D01*
X9161610Y-14476174D02*
X9180658Y-14466650D01*
X9180658Y-14466650D02*
X9209229Y-14466650D01*
X9209229Y-14466650D02*
X9228277Y-14476174D01*
X9228277Y-14476174D02*
X9237801Y-14495222D01*
X9237801Y-14495222D02*
X9237801Y-14599984D01*
X9237801Y-14495222D02*
X9247325Y-14476174D01*
X9247325Y-14476174D02*
X9266372Y-14466650D01*
X9266372Y-14466650D02*
X9294944Y-14466650D01*
X9294944Y-14466650D02*
X9313991Y-14476174D01*
X9313991Y-14476174D02*
X9323515Y-14495222D01*
X9323515Y-14495222D02*
X9323515Y-14599984D01*
X9713991Y-14390460D02*
X9542563Y-14647603D01*
X9971134Y-14399984D02*
X9990182Y-14399984D01*
X9990182Y-14399984D02*
X10009229Y-14409508D01*
X10009229Y-14409508D02*
X10018753Y-14419031D01*
X10018753Y-14419031D02*
X10028277Y-14438079D01*
X10028277Y-14438079D02*
X10037801Y-14476174D01*
X10037801Y-14476174D02*
X10037801Y-14523793D01*
X10037801Y-14523793D02*
X10028277Y-14561888D01*
X10028277Y-14561888D02*
X10018753Y-14580936D01*
X10018753Y-14580936D02*
X10009229Y-14590460D01*
X10009229Y-14590460D02*
X9990182Y-14599984D01*
X9990182Y-14599984D02*
X9971134Y-14599984D01*
X9971134Y-14599984D02*
X9952087Y-14590460D01*
X9952087Y-14590460D02*
X9942563Y-14580936D01*
X9942563Y-14580936D02*
X9933039Y-14561888D01*
X9933039Y-14561888D02*
X9923515Y-14523793D01*
X9923515Y-14523793D02*
X9923515Y-14476174D01*
X9923515Y-14476174D02*
X9933039Y-14438079D01*
X9933039Y-14438079D02*
X9942563Y-14419031D01*
X9942563Y-14419031D02*
X9952087Y-14409508D01*
X9952087Y-14409508D02*
X9971134Y-14399984D01*
X10123515Y-14580936D02*
X10133039Y-14590460D01*
X10133039Y-14590460D02*
X10123515Y-14599984D01*
X10123515Y-14599984D02*
X10113991Y-14590460D01*
X10113991Y-14590460D02*
X10123515Y-14580936D01*
X10123515Y-14580936D02*
X10123515Y-14599984D01*
X10323515Y-14599984D02*
X10209229Y-14599984D01*
X10266372Y-14599984D02*
X10266372Y-14399984D01*
X10266372Y-14399984D02*
X10247325Y-14428555D01*
X10247325Y-14428555D02*
X10228277Y-14447603D01*
X10228277Y-14447603D02*
X10209229Y-14457127D01*
X10494944Y-14399984D02*
X10456848Y-14399984D01*
X10456848Y-14399984D02*
X10437801Y-14409508D01*
X10437801Y-14409508D02*
X10428277Y-14419031D01*
X10428277Y-14419031D02*
X10409229Y-14447603D01*
X10409229Y-14447603D02*
X10399706Y-14485698D01*
X10399706Y-14485698D02*
X10399706Y-14561888D01*
X10399706Y-14561888D02*
X10409229Y-14580936D01*
X10409229Y-14580936D02*
X10418753Y-14590460D01*
X10418753Y-14590460D02*
X10437801Y-14599984D01*
X10437801Y-14599984D02*
X10475896Y-14599984D01*
X10475896Y-14599984D02*
X10494944Y-14590460D01*
X10494944Y-14590460D02*
X10504468Y-14580936D01*
X10504468Y-14580936D02*
X10513991Y-14561888D01*
X10513991Y-14561888D02*
X10513991Y-14514269D01*
X10513991Y-14514269D02*
X10504468Y-14495222D01*
X10504468Y-14495222D02*
X10494944Y-14485698D01*
X10494944Y-14485698D02*
X10475896Y-14476174D01*
X10475896Y-14476174D02*
X10437801Y-14476174D01*
X10437801Y-14476174D02*
X10418753Y-14485698D01*
X10418753Y-14485698D02*
X10409229Y-14495222D01*
X10409229Y-14495222D02*
X10399706Y-14514269D01*
X10609229Y-14599984D02*
X10647325Y-14599984D01*
X10647325Y-14599984D02*
X10666372Y-14590460D01*
X10666372Y-14590460D02*
X10675896Y-14580936D01*
X10675896Y-14580936D02*
X10694944Y-14552365D01*
X10694944Y-14552365D02*
X10704468Y-14514269D01*
X10704468Y-14514269D02*
X10704468Y-14438079D01*
X10704468Y-14438079D02*
X10694944Y-14419031D01*
X10694944Y-14419031D02*
X10685420Y-14409508D01*
X10685420Y-14409508D02*
X10666372Y-14399984D01*
X10666372Y-14399984D02*
X10628277Y-14399984D01*
X10628277Y-14399984D02*
X10609229Y-14409508D01*
X10609229Y-14409508D02*
X10599706Y-14419031D01*
X10599706Y-14419031D02*
X10590182Y-14438079D01*
X10590182Y-14438079D02*
X10590182Y-14485698D01*
X10590182Y-14485698D02*
X10599706Y-14504746D01*
X10599706Y-14504746D02*
X10609229Y-14514269D01*
X10609229Y-14514269D02*
X10628277Y-14523793D01*
X10628277Y-14523793D02*
X10666372Y-14523793D01*
X10666372Y-14523793D02*
X10685420Y-14514269D01*
X10685420Y-14514269D02*
X10694944Y-14504746D01*
X10694944Y-14504746D02*
X10704468Y-14485698D01*
X10771134Y-14399984D02*
X10894944Y-14399984D01*
X10894944Y-14399984D02*
X10828277Y-14476174D01*
X10828277Y-14476174D02*
X10856849Y-14476174D01*
X10856849Y-14476174D02*
X10875896Y-14485698D01*
X10875896Y-14485698D02*
X10885420Y-14495222D01*
X10885420Y-14495222D02*
X10894944Y-14514269D01*
X10894944Y-14514269D02*
X10894944Y-14561888D01*
X10894944Y-14561888D02*
X10885420Y-14580936D01*
X10885420Y-14580936D02*
X10875896Y-14590460D01*
X10875896Y-14590460D02*
X10856849Y-14599984D01*
X10856849Y-14599984D02*
X10799706Y-14599984D01*
X10799706Y-14599984D02*
X10780658Y-14590460D01*
X10780658Y-14590460D02*
X10771134Y-14580936D01*
X10971134Y-14399984D02*
X10971134Y-14438079D01*
X11047325Y-14399984D02*
X11047325Y-14438079D01*
X11342563Y-14676174D02*
X11333039Y-14666650D01*
X11333039Y-14666650D02*
X11313991Y-14638079D01*
X11313991Y-14638079D02*
X11304468Y-14619031D01*
X11304468Y-14619031D02*
X11294944Y-14590460D01*
X11294944Y-14590460D02*
X11285420Y-14542841D01*
X11285420Y-14542841D02*
X11285420Y-14504746D01*
X11285420Y-14504746D02*
X11294944Y-14457127D01*
X11294944Y-14457127D02*
X11304468Y-14428555D01*
X11304468Y-14428555D02*
X11313991Y-14409508D01*
X11313991Y-14409508D02*
X11333039Y-14380936D01*
X11333039Y-14380936D02*
X11342563Y-14371412D01*
X11504468Y-14466650D02*
X11504468Y-14599984D01*
X11456848Y-14390460D02*
X11409229Y-14533317D01*
X11409229Y-14533317D02*
X11533039Y-14533317D01*
X11761610Y-14599984D02*
X11761610Y-14399984D01*
X11847325Y-14599984D02*
X11847325Y-14495222D01*
X11847325Y-14495222D02*
X11837801Y-14476174D01*
X11837801Y-14476174D02*
X11818753Y-14466650D01*
X11818753Y-14466650D02*
X11790182Y-14466650D01*
X11790182Y-14466650D02*
X11771134Y-14476174D01*
X11771134Y-14476174D02*
X11761610Y-14485698D01*
X11971134Y-14599984D02*
X11952087Y-14590460D01*
X11952087Y-14590460D02*
X11942563Y-14580936D01*
X11942563Y-14580936D02*
X11933039Y-14561888D01*
X11933039Y-14561888D02*
X11933039Y-14504746D01*
X11933039Y-14504746D02*
X11942563Y-14485698D01*
X11942563Y-14485698D02*
X11952087Y-14476174D01*
X11952087Y-14476174D02*
X11971134Y-14466650D01*
X11971134Y-14466650D02*
X11999706Y-14466650D01*
X11999706Y-14466650D02*
X12018753Y-14476174D01*
X12018753Y-14476174D02*
X12028277Y-14485698D01*
X12028277Y-14485698D02*
X12037801Y-14504746D01*
X12037801Y-14504746D02*
X12037801Y-14561888D01*
X12037801Y-14561888D02*
X12028277Y-14580936D01*
X12028277Y-14580936D02*
X12018753Y-14590460D01*
X12018753Y-14590460D02*
X11999706Y-14599984D01*
X11999706Y-14599984D02*
X11971134Y-14599984D01*
X12152087Y-14599984D02*
X12133039Y-14590460D01*
X12133039Y-14590460D02*
X12123515Y-14571412D01*
X12123515Y-14571412D02*
X12123515Y-14399984D01*
X12304468Y-14590460D02*
X12285420Y-14599984D01*
X12285420Y-14599984D02*
X12247325Y-14599984D01*
X12247325Y-14599984D02*
X12228277Y-14590460D01*
X12228277Y-14590460D02*
X12218753Y-14571412D01*
X12218753Y-14571412D02*
X12218753Y-14495222D01*
X12218753Y-14495222D02*
X12228277Y-14476174D01*
X12228277Y-14476174D02*
X12247325Y-14466650D01*
X12247325Y-14466650D02*
X12285420Y-14466650D01*
X12285420Y-14466650D02*
X12304468Y-14476174D01*
X12304468Y-14476174D02*
X12313991Y-14495222D01*
X12313991Y-14495222D02*
X12313991Y-14514269D01*
X12313991Y-14514269D02*
X12218753Y-14533317D01*
X12390182Y-14590460D02*
X12409230Y-14599984D01*
X12409230Y-14599984D02*
X12447325Y-14599984D01*
X12447325Y-14599984D02*
X12466372Y-14590460D01*
X12466372Y-14590460D02*
X12475896Y-14571412D01*
X12475896Y-14571412D02*
X12475896Y-14561888D01*
X12475896Y-14561888D02*
X12466372Y-14542841D01*
X12466372Y-14542841D02*
X12447325Y-14533317D01*
X12447325Y-14533317D02*
X12418753Y-14533317D01*
X12418753Y-14533317D02*
X12399706Y-14523793D01*
X12399706Y-14523793D02*
X12390182Y-14504746D01*
X12390182Y-14504746D02*
X12390182Y-14495222D01*
X12390182Y-14495222D02*
X12399706Y-14476174D01*
X12399706Y-14476174D02*
X12418753Y-14466650D01*
X12418753Y-14466650D02*
X12447325Y-14466650D01*
X12447325Y-14466650D02*
X12466372Y-14476174D01*
X12542563Y-14676174D02*
X12552087Y-14666650D01*
X12552087Y-14666650D02*
X12571134Y-14638079D01*
X12571134Y-14638079D02*
X12580658Y-14619031D01*
X12580658Y-14619031D02*
X12590182Y-14590460D01*
X12590182Y-14590460D02*
X12599706Y-14542841D01*
X12599706Y-14542841D02*
X12599706Y-14504746D01*
X12599706Y-14504746D02*
X12590182Y-14457127D01*
X12590182Y-14457127D02*
X12580658Y-14428555D01*
X12580658Y-14428555D02*
X12571134Y-14409508D01*
X12571134Y-14409508D02*
X12552087Y-14380936D01*
X12552087Y-14380936D02*
X12542563Y-14371412D01*
X7567500Y-14728500D02*
X7767500Y-14928500D01*
X7767500Y-14728500D02*
X7567500Y-14928500D01*
X7667500Y-14728500D02*
X7667500Y-14928500D01*
X7567500Y-14828500D02*
X7767500Y-14828500D01*
X8113991Y-14786650D02*
X8113991Y-14919984D01*
X8066372Y-14710460D02*
X8018753Y-14853317D01*
X8018753Y-14853317D02*
X8142562Y-14853317D01*
X8218753Y-14900936D02*
X8228277Y-14910460D01*
X8228277Y-14910460D02*
X8218753Y-14919984D01*
X8218753Y-14919984D02*
X8209229Y-14910460D01*
X8209229Y-14910460D02*
X8218753Y-14900936D01*
X8218753Y-14900936D02*
X8218753Y-14919984D01*
X8399705Y-14786650D02*
X8399705Y-14919984D01*
X8352086Y-14710460D02*
X8304467Y-14853317D01*
X8304467Y-14853317D02*
X8428277Y-14853317D01*
X8542563Y-14719984D02*
X8561610Y-14719984D01*
X8561610Y-14719984D02*
X8580658Y-14729508D01*
X8580658Y-14729508D02*
X8590182Y-14739031D01*
X8590182Y-14739031D02*
X8599705Y-14758079D01*
X8599705Y-14758079D02*
X8609229Y-14796174D01*
X8609229Y-14796174D02*
X8609229Y-14843793D01*
X8609229Y-14843793D02*
X8599705Y-14881888D01*
X8599705Y-14881888D02*
X8590182Y-14900936D01*
X8590182Y-14900936D02*
X8580658Y-14910460D01*
X8580658Y-14910460D02*
X8561610Y-14919984D01*
X8561610Y-14919984D02*
X8542563Y-14919984D01*
X8542563Y-14919984D02*
X8523515Y-14910460D01*
X8523515Y-14910460D02*
X8513991Y-14900936D01*
X8513991Y-14900936D02*
X8504467Y-14881888D01*
X8504467Y-14881888D02*
X8494944Y-14843793D01*
X8494944Y-14843793D02*
X8494944Y-14796174D01*
X8494944Y-14796174D02*
X8504467Y-14758079D01*
X8504467Y-14758079D02*
X8513991Y-14739031D01*
X8513991Y-14739031D02*
X8523515Y-14729508D01*
X8523515Y-14729508D02*
X8542563Y-14719984D01*
X8733039Y-14719984D02*
X8752086Y-14719984D01*
X8752086Y-14719984D02*
X8771134Y-14729508D01*
X8771134Y-14729508D02*
X8780658Y-14739031D01*
X8780658Y-14739031D02*
X8790182Y-14758079D01*
X8790182Y-14758079D02*
X8799705Y-14796174D01*
X8799705Y-14796174D02*
X8799705Y-14843793D01*
X8799705Y-14843793D02*
X8790182Y-14881888D01*
X8790182Y-14881888D02*
X8780658Y-14900936D01*
X8780658Y-14900936D02*
X8771134Y-14910460D01*
X8771134Y-14910460D02*
X8752086Y-14919984D01*
X8752086Y-14919984D02*
X8733039Y-14919984D01*
X8733039Y-14919984D02*
X8713991Y-14910460D01*
X8713991Y-14910460D02*
X8704467Y-14900936D01*
X8704467Y-14900936D02*
X8694944Y-14881888D01*
X8694944Y-14881888D02*
X8685420Y-14843793D01*
X8685420Y-14843793D02*
X8685420Y-14796174D01*
X8685420Y-14796174D02*
X8694944Y-14758079D01*
X8694944Y-14758079D02*
X8704467Y-14739031D01*
X8704467Y-14739031D02*
X8713991Y-14729508D01*
X8713991Y-14729508D02*
X8733039Y-14719984D01*
X8885420Y-14919984D02*
X8885420Y-14786650D01*
X8885420Y-14805698D02*
X8894944Y-14796174D01*
X8894944Y-14796174D02*
X8913991Y-14786650D01*
X8913991Y-14786650D02*
X8942563Y-14786650D01*
X8942563Y-14786650D02*
X8961610Y-14796174D01*
X8961610Y-14796174D02*
X8971134Y-14815222D01*
X8971134Y-14815222D02*
X8971134Y-14919984D01*
X8971134Y-14815222D02*
X8980658Y-14796174D01*
X8980658Y-14796174D02*
X8999705Y-14786650D01*
X8999705Y-14786650D02*
X9028277Y-14786650D01*
X9028277Y-14786650D02*
X9047325Y-14796174D01*
X9047325Y-14796174D02*
X9056848Y-14815222D01*
X9056848Y-14815222D02*
X9056848Y-14919984D01*
X9152086Y-14919984D02*
X9152086Y-14786650D01*
X9152086Y-14805698D02*
X9161610Y-14796174D01*
X9161610Y-14796174D02*
X9180658Y-14786650D01*
X9180658Y-14786650D02*
X9209229Y-14786650D01*
X9209229Y-14786650D02*
X9228277Y-14796174D01*
X9228277Y-14796174D02*
X9237801Y-14815222D01*
X9237801Y-14815222D02*
X9237801Y-14919984D01*
X9237801Y-14815222D02*
X9247325Y-14796174D01*
X9247325Y-14796174D02*
X9266372Y-14786650D01*
X9266372Y-14786650D02*
X9294944Y-14786650D01*
X9294944Y-14786650D02*
X9313991Y-14796174D01*
X9313991Y-14796174D02*
X9323515Y-14815222D01*
X9323515Y-14815222D02*
X9323515Y-14919984D01*
X9713991Y-14710460D02*
X9542563Y-14967603D01*
X9971134Y-14719984D02*
X9990182Y-14719984D01*
X9990182Y-14719984D02*
X10009229Y-14729508D01*
X10009229Y-14729508D02*
X10018753Y-14739031D01*
X10018753Y-14739031D02*
X10028277Y-14758079D01*
X10028277Y-14758079D02*
X10037801Y-14796174D01*
X10037801Y-14796174D02*
X10037801Y-14843793D01*
X10037801Y-14843793D02*
X10028277Y-14881888D01*
X10028277Y-14881888D02*
X10018753Y-14900936D01*
X10018753Y-14900936D02*
X10009229Y-14910460D01*
X10009229Y-14910460D02*
X9990182Y-14919984D01*
X9990182Y-14919984D02*
X9971134Y-14919984D01*
X9971134Y-14919984D02*
X9952087Y-14910460D01*
X9952087Y-14910460D02*
X9942563Y-14900936D01*
X9942563Y-14900936D02*
X9933039Y-14881888D01*
X9933039Y-14881888D02*
X9923515Y-14843793D01*
X9923515Y-14843793D02*
X9923515Y-14796174D01*
X9923515Y-14796174D02*
X9933039Y-14758079D01*
X9933039Y-14758079D02*
X9942563Y-14739031D01*
X9942563Y-14739031D02*
X9952087Y-14729508D01*
X9952087Y-14729508D02*
X9971134Y-14719984D01*
X10123515Y-14900936D02*
X10133039Y-14910460D01*
X10133039Y-14910460D02*
X10123515Y-14919984D01*
X10123515Y-14919984D02*
X10113991Y-14910460D01*
X10113991Y-14910460D02*
X10123515Y-14900936D01*
X10123515Y-14900936D02*
X10123515Y-14919984D01*
X10323515Y-14919984D02*
X10209229Y-14919984D01*
X10266372Y-14919984D02*
X10266372Y-14719984D01*
X10266372Y-14719984D02*
X10247325Y-14748555D01*
X10247325Y-14748555D02*
X10228277Y-14767603D01*
X10228277Y-14767603D02*
X10209229Y-14777127D01*
X10390182Y-14719984D02*
X10523515Y-14719984D01*
X10523515Y-14719984D02*
X10437801Y-14919984D01*
X10580658Y-14719984D02*
X10704468Y-14719984D01*
X10704468Y-14719984D02*
X10637801Y-14796174D01*
X10637801Y-14796174D02*
X10666372Y-14796174D01*
X10666372Y-14796174D02*
X10685420Y-14805698D01*
X10685420Y-14805698D02*
X10694944Y-14815222D01*
X10694944Y-14815222D02*
X10704468Y-14834269D01*
X10704468Y-14834269D02*
X10704468Y-14881888D01*
X10704468Y-14881888D02*
X10694944Y-14900936D01*
X10694944Y-14900936D02*
X10685420Y-14910460D01*
X10685420Y-14910460D02*
X10666372Y-14919984D01*
X10666372Y-14919984D02*
X10609229Y-14919984D01*
X10609229Y-14919984D02*
X10590182Y-14910460D01*
X10590182Y-14910460D02*
X10580658Y-14900936D01*
X10780658Y-14739031D02*
X10790182Y-14729508D01*
X10790182Y-14729508D02*
X10809229Y-14719984D01*
X10809229Y-14719984D02*
X10856849Y-14719984D01*
X10856849Y-14719984D02*
X10875896Y-14729508D01*
X10875896Y-14729508D02*
X10885420Y-14739031D01*
X10885420Y-14739031D02*
X10894944Y-14758079D01*
X10894944Y-14758079D02*
X10894944Y-14777127D01*
X10894944Y-14777127D02*
X10885420Y-14805698D01*
X10885420Y-14805698D02*
X10771134Y-14919984D01*
X10771134Y-14919984D02*
X10894944Y-14919984D01*
X10971134Y-14719984D02*
X10971134Y-14758079D01*
X11047325Y-14719984D02*
X11047325Y-14758079D01*
X11342563Y-14996174D02*
X11333039Y-14986650D01*
X11333039Y-14986650D02*
X11313991Y-14958079D01*
X11313991Y-14958079D02*
X11304468Y-14939031D01*
X11304468Y-14939031D02*
X11294944Y-14910460D01*
X11294944Y-14910460D02*
X11285420Y-14862841D01*
X11285420Y-14862841D02*
X11285420Y-14824746D01*
X11285420Y-14824746D02*
X11294944Y-14777127D01*
X11294944Y-14777127D02*
X11304468Y-14748555D01*
X11304468Y-14748555D02*
X11313991Y-14729508D01*
X11313991Y-14729508D02*
X11333039Y-14700936D01*
X11333039Y-14700936D02*
X11342563Y-14691412D01*
X11504468Y-14786650D02*
X11504468Y-14919984D01*
X11456848Y-14710460D02*
X11409229Y-14853317D01*
X11409229Y-14853317D02*
X11533039Y-14853317D01*
X11761610Y-14919984D02*
X11761610Y-14719984D01*
X11847325Y-14919984D02*
X11847325Y-14815222D01*
X11847325Y-14815222D02*
X11837801Y-14796174D01*
X11837801Y-14796174D02*
X11818753Y-14786650D01*
X11818753Y-14786650D02*
X11790182Y-14786650D01*
X11790182Y-14786650D02*
X11771134Y-14796174D01*
X11771134Y-14796174D02*
X11761610Y-14805698D01*
X11971134Y-14919984D02*
X11952087Y-14910460D01*
X11952087Y-14910460D02*
X11942563Y-14900936D01*
X11942563Y-14900936D02*
X11933039Y-14881888D01*
X11933039Y-14881888D02*
X11933039Y-14824746D01*
X11933039Y-14824746D02*
X11942563Y-14805698D01*
X11942563Y-14805698D02*
X11952087Y-14796174D01*
X11952087Y-14796174D02*
X11971134Y-14786650D01*
X11971134Y-14786650D02*
X11999706Y-14786650D01*
X11999706Y-14786650D02*
X12018753Y-14796174D01*
X12018753Y-14796174D02*
X12028277Y-14805698D01*
X12028277Y-14805698D02*
X12037801Y-14824746D01*
X12037801Y-14824746D02*
X12037801Y-14881888D01*
X12037801Y-14881888D02*
X12028277Y-14900936D01*
X12028277Y-14900936D02*
X12018753Y-14910460D01*
X12018753Y-14910460D02*
X11999706Y-14919984D01*
X11999706Y-14919984D02*
X11971134Y-14919984D01*
X12152087Y-14919984D02*
X12133039Y-14910460D01*
X12133039Y-14910460D02*
X12123515Y-14891412D01*
X12123515Y-14891412D02*
X12123515Y-14719984D01*
X12304468Y-14910460D02*
X12285420Y-14919984D01*
X12285420Y-14919984D02*
X12247325Y-14919984D01*
X12247325Y-14919984D02*
X12228277Y-14910460D01*
X12228277Y-14910460D02*
X12218753Y-14891412D01*
X12218753Y-14891412D02*
X12218753Y-14815222D01*
X12218753Y-14815222D02*
X12228277Y-14796174D01*
X12228277Y-14796174D02*
X12247325Y-14786650D01*
X12247325Y-14786650D02*
X12285420Y-14786650D01*
X12285420Y-14786650D02*
X12304468Y-14796174D01*
X12304468Y-14796174D02*
X12313991Y-14815222D01*
X12313991Y-14815222D02*
X12313991Y-14834269D01*
X12313991Y-14834269D02*
X12218753Y-14853317D01*
X12390182Y-14910460D02*
X12409230Y-14919984D01*
X12409230Y-14919984D02*
X12447325Y-14919984D01*
X12447325Y-14919984D02*
X12466372Y-14910460D01*
X12466372Y-14910460D02*
X12475896Y-14891412D01*
X12475896Y-14891412D02*
X12475896Y-14881888D01*
X12475896Y-14881888D02*
X12466372Y-14862841D01*
X12466372Y-14862841D02*
X12447325Y-14853317D01*
X12447325Y-14853317D02*
X12418753Y-14853317D01*
X12418753Y-14853317D02*
X12399706Y-14843793D01*
X12399706Y-14843793D02*
X12390182Y-14824746D01*
X12390182Y-14824746D02*
X12390182Y-14815222D01*
X12390182Y-14815222D02*
X12399706Y-14796174D01*
X12399706Y-14796174D02*
X12418753Y-14786650D01*
X12418753Y-14786650D02*
X12447325Y-14786650D01*
X12447325Y-14786650D02*
X12466372Y-14796174D01*
X12542563Y-14996174D02*
X12552087Y-14986650D01*
X12552087Y-14986650D02*
X12571134Y-14958079D01*
X12571134Y-14958079D02*
X12580658Y-14939031D01*
X12580658Y-14939031D02*
X12590182Y-14910460D01*
X12590182Y-14910460D02*
X12599706Y-14862841D01*
X12599706Y-14862841D02*
X12599706Y-14824746D01*
X12599706Y-14824746D02*
X12590182Y-14777127D01*
X12590182Y-14777127D02*
X12580658Y-14748555D01*
X12580658Y-14748555D02*
X12571134Y-14729508D01*
X12571134Y-14729508D02*
X12552087Y-14700936D01*
X12552087Y-14700936D02*
X12542563Y-14691412D01*
M02*
